<?xml version="1.0" encoding="UTF-8" standalone="no"?>
<!-- Created with Inkscape (http://www.inkscape.org/) -->

<svg
   xmlns:dc="http://purl.org/dc/elements/1.1/"
   xmlns:cc="http://creativecommons.org/ns#"
   xmlns:rdf="http://www.w3.org/1999/02/22-rdf-syntax-ns#"
   xmlns:svg="http://www.w3.org/2000/svg"
   xmlns="http://www.w3.org/2000/svg"
   xmlns:sodipodi="http://sodipodi.sourceforge.net/DTD/sodipodi-0.dtd"
   xmlns:inkscape="http://www.inkscape.org/namespaces/inkscape"
   version="1.1"
   id="svg3935"
   width="600.30389"
   height="622.03723"
   viewBox="0 0 600.3039 622.03724"
   sodipodi:docname="adv-icon-3.svg"
   inkscape:version="0.92.4 (unknown)">
  <path
     d="m 543.7975,621.03062 c -1.33671,-0.5471 -3.33296,-2.01623 -4.43613,-3.26474 -1.10316,-1.24851 -11.35632,-22.0608 -22.78481,-46.24954 l -20.77906,-43.97952 0.018,-118.85593 c 0.0196,-129.46734 -0.0762,-127.51941 6.89807,-140.33343 4.48746,-8.24491 14.68644,-17.44841 24.34372,-21.96761 10.2284,-4.78643 25.12574,-5.9989 35.75197,-2.90978 15.94253,4.63463 30.15822,18.60526 35.05124,34.44704 2.3787,7.70129 2.44337,11.12838 2.44337,129.46675 v 121.55606 l -20.29272,44.35444 c -17.26516,37.73703 -20.84582,44.69175 -24,46.61521 -3.90872,2.38359 -8.17268,2.77497 -12.21361,1.12105 z m 14.48362,-64.39002 c 4.39857,-9.64636 7.99739,-17.71219 7.99739,-17.92406 0,-0.21188 -7.98761,-0.38524 -17.75027,-0.38524 -13.71101,0 -17.61332,0.34566 -17.14851,1.51899 3.71024,9.36569 17.29503,36.00488 17.99115,35.27987 0.50207,-0.52292 4.51167,-8.84322 8.91024,-18.48956 z m 15.28853,-133.14475 v -88.10127 h -25.51899 -25.51899 v 88.10127 88.10128 h 25.51899 25.51899 z M 573.3661,296.55471 c -0.44427,-11.06081 -0.79735,-12.5474 -4.09071,-17.22316 -9.57623,-13.59592 -29.82097,-14.43333 -40.34261,-1.66877 -4.50242,5.46222 -6.40111,12.29318 -6.40111,23.02941 v 7.96822 H 548.192 573.85232 Z M 55.29114,530.46528 C 33.60898,525.71661 15.29082,510.92335 6.24893,490.8601 0.59316,478.31039 0,472.97415 0,434.64314 0,403.77326 0.25932,398.755 1.9816,396.2961 c 3.86168,-5.51332 8.08567,-6.21797 37.27306,-6.21797 h 27.18082 l 0.80673,-95.69621 c 0.4437,-52.63291 0.82193,-126.59241 0.8405,-164.35444 0.0186,-37.762019 0.53271,-73.817779 1.14252,-80.123899 1.85154,-19.146936 10.87702,-33.610539 26.79255,-42.9358369 12.44141,-7.28973202 3.13066,-6.96558202 200.07647,-6.96558202 127.91337,0 182.00756,0.39316 186.58014,1.35607602 10.26345,2.16133 19.21031,7.134898 27.42262,15.2442599 9.07948,8.965656 14.25297,19.104036 16.02284,31.399667 1.68131,11.680251 1.66036,134.656005 -0.0239,140.721445 -0.8621,3.10453 -2.55411,5.39523 -5.15779,6.9828 -3.61532,2.20442 -6.37501,2.36292 -41.21209,2.36717 l -37.33732,0.005 -0.33359,138.83545 c -0.33178,138.08863 -0.34742,138.87156 -2.90718,145.54631 -5.1826,13.51403 -9.35316,20.07024 -18.55593,29.17035 -10.42799,10.31166 -20.83247,16.08317 -34.04104,18.88304 -11.47257,2.43189 -320.14106,2.38717 -331.25983,-0.048 z m 257.6092,-30.10866 C 303.21225,484.65601 301.41518,475.64554 301.3882,442.6351 l -0.0211,-25.82279 H 164.05064 26.73418 l 0.0288,27.03798 c 0.0272,25.51743 0.18845,27.42603 2.86696,33.93832 3.71619,9.0352 9.06303,15.63883 16.55526,20.44658 11.60922,7.44961 4.98233,7.11608 143.14946,7.20469 l 126.75244,0.0813 z m 76.63451,1.04896 c 9.38013,-4.27918 17.71488,-12.55939 22.02093,-21.87684 l 3.43158,-7.42529 0.6076,-214.48102 0.60759,-214.481025 2.57877,-6.07595 c 1.41832,-3.341772 2.98063,-7.032912 3.47179,-8.202532 0.84775,-2.018786 -6.86387,-2.126582 -152.13303,-2.126582 H 117.09404 l -6.59013,3.341772 c -4.31635,2.18877 -7.85055,5.159762 -10.24322,8.610889 l -3.65309,5.269117 -0.787,29.363797 C 95.38775,89.472001 94.6995,167.33535 94.29117,246.35157 l -0.74243,143.66585 112.71931,0.33415 c 94.10471,0.27897 113.14111,0.61472 115.27355,2.03308 5.77393,3.84047 5.91854,4.79415 6.55968,43.2631 l 0.6076,36.4557 3.52519,7.63386 c 10.12227,21.91994 35.61649,31.56057 57.30078,21.66827 z M 141.43322,363.72348 c -1.41173,-0.27759 -4.14591,-2.15294 -6.07595,-4.16747 -2.8101,-2.93312 -3.50916,-4.75611 -3.50916,-9.15102 0,-4.66333 0.5965,-6.02122 3.96854,-9.03414 l 3.96853,-3.54589 h 69.94773 69.94773 l 3.55209,3.5521 c 7.06514,7.06513 3.78065,19.22382 -5.92091,21.91826 -4.30652,1.19606 -129.95943,1.59201 -135.8786,0.42816 z m 0.0695,-55.14605 c -5.99813,-1.74321 -9.65462,-6.54421 -9.65462,-12.67652 0,-6.34869 3.67969,-10.93247 10.23887,-12.75456 5.90282,-1.63977 213.01185,-1.63977 218.91467,0 6.55918,1.82209 10.23888,6.40587 10.23888,12.75456 0,6.34869 -3.6797,10.93247 -10.23888,12.75456 -5.48708,1.52427 -214.24111,1.45005 -219.49898,-0.078 z m 91.20614,-111.019 c -4.64736,-2.09033 -42.56313,-40.46243 -43.71802,-44.24419 -2.56929,-8.41321 4.08779,-17.21081 13.02329,-17.21081 4.72832,0 5.70311,0.72846 20.29485,15.16634 l 15.32794,15.16634 27.30813,-27.39926 c 15.01946,-15.06958 28.78476,-28.18304 30.58955,-29.14101 10.61219,-5.63293 23.17458,4.05605 19.17883,14.79205 -1.71766,4.61509 -67.47934,70.70027 -72.54781,72.9047 -4.69468,2.04185 -4.84245,2.04133 -9.45676,-0.0342 z m 267.69777,-87.88538 c -0.34937,-60.526108 -0.40467,-61.761114 -2.97887,-66.531645 -9.39729,-17.415171 -32.25552,-21.600419 -45.85231,-8.395376 -9.06301,8.801889 -8.59945,4.96732 -8.98451,74.319431 l -0.34578,62.27848 h 29.25872 29.25873 z"
     id="path3945"
     inkscape:connector-curvature="0" />
</svg>
