<?xml version="1.0" encoding="UTF-8" standalone="no"?>
<!-- Created with Inkscape (http://www.inkscape.org/) -->

<svg
   xmlns:dc="http://purl.org/dc/elements/1.1/"
   xmlns:cc="http://creativecommons.org/ns#"
   xmlns:rdf="http://www.w3.org/1999/02/22-rdf-syntax-ns#"
   xmlns:svg="http://www.w3.org/2000/svg"
   xmlns="http://www.w3.org/2000/svg"
   xmlns:sodipodi="http://sodipodi.sourceforge.net/DTD/sodipodi-0.dtd"
   xmlns:inkscape="http://www.inkscape.org/namespaces/inkscape"
   version="1.1"
   id="svg3925"
   width="447.46848"
   height="511.52298"
   viewBox="0 0 447.46848 511.52298"
   sodipodi:docname="adv-icon-2.svg"
   inkscape:version="0.92.4 (unknown)">

  <path
     d="m 180.3738,510.4768 c -2.75,-0.52062 -8.375,-2.54419 -12.5,-4.49682 -7.27175,-3.44219 -9.76106,-5.80657 -81.796484,-77.69157 -40.86306,-40.77773 -75.89588,-76.53587 -77.8507103,-79.46252 -5.51037,-8.24983 -7.62850998,-15.23131 -8.13069998,-26.79925 -0.51143,-11.78062 0.93450998,-18.1343 6.47377998,-28.44677 l 3.5275303,-6.56722 -3.0359103,-5.43278 c -9.56661,-17.11954 -8.73296,-38.79917 2.11626,-55.03483 C 14.210836,219.01285 223.06661,10.635925 228.95371,7.2727815 c 6.27455,-3.584486 14.83234,-6.4079201 21.6883,-7.1555269 3.15248,-0.3437622 20.13179,0.094407 37.73179,0.9737101 17.6,0.8793028 41.225,2.0477398 52.5,2.5965278 45.32116,2.205914 56.71502,3.003111 61.5,4.302985 18.97146,5.1537325 33.55354,20.3784575 37.98268,39.6566065 2.10098,9.144669 7.9561,131.521766 7.00927,146.499996 -0.87486,13.8399 -1.03683,29.99512 -0.53138,53 0.36134,16.44549 0.2066,18.5743 -1.79181,24.64993 -1.20302,3.65747 -3.95906,9.28247 -6.12455,12.5 -2.38971,3.55071 -45.71965,47.57003 -110.24072,111.99466 -104.10676,103.95114 -106.45848,106.21753 -113.80349,109.6743 -11.37523,5.35349 -22.42069,6.79767 -34.5,4.51083 z m 24.82356,-23.37477 c 4.43589,-2.17204 23.43774,-20.7208 110.42215,-107.78922 73.6667,-73.73785 105.75732,-106.51052 107.38343,-109.66573 2.02071,-3.92087 2.36702,-6.26957 2.69091,-18.25 0.20446,-7.5625 -0.004,-13.75 -0.46266,-13.75 -0.45892,0 -46.06457,45.14655 -101.3459,100.32566 -109.0296,108.82802 -104.4649,104.68374 -119.10456,108.13456 -12.45251,2.93526 -25.29571,1.36316 -37.1672,-4.54955 -5.47232,-2.72555 -14.55888,-11.4127 -73.882194,-70.6347 -39.08986,-39.0231 -68.10442,-67.24143 -68.73686,-66.85056 -2.15774,1.33356 -4.38343,11.71246 -3.87363,18.06357 1.00976,12.57946 -1.69095,9.49814 78.54232,89.61136 73.277584,73.16793 76.106514,75.77378 84.710634,78.03042 5.31135,1.39303 15.0766,0.13821 20.82356,-2.67581 z m 1.03214,-64.32644 c 5.44256,-2.69456 18.15169,-15.06758 111.27817,-108.33525 100.49834,-100.65069 105.22718,-105.54844 107.25,-111.08077 2.70989,-7.41143 2.72549,-5.98384 -0.89832,-82.21249 C 421.71214,75.979361 420.36876,55.381558 419.29401,51.147084 416.64469,40.708898 407.82279,31.418909 397.90832,28.626657 395.96433,28.079165 362.9568,26.064491 324.55825,24.149605 249.61153,20.412109 249.75433,20.410213 240.84118,25.261353 237.70501,26.968271 202.53879,61.499669 131.16212,132.96046 29.538666,234.7037 26.026966,238.3435 23.888706,244.14708 c -3.00257,8.14947 -2.49113,18.7846 1.25034,26 1.95204,3.76452 20.71008,23.07487 75.913724,78.14897 40.32657,40.23193 74.76891,73.87342 76.53853,74.75887 8.9016,4.454 19.28214,4.35275 28.6382,-0.27933 z M 187.09632,335.6138 c -5.86414,-1.1952 -13.73675,-5.64943 -17.44026,-9.86749 -5.47786,-6.23894 -8.21336,-13.61339 -8.19754,-22.09923 0.0171,-9.19496 2.30729,-14.83207 8.88079,-21.85967 6.47914,-6.92673 12.87547,-9.58962 23.03449,-9.58962 10.15902,0 16.55535,2.66289 23.03449,9.58962 8.32279,8.89773 11.13858,19.5927 8.00046,30.38745 -4.81831,16.57439 -21.02914,26.75772 -37.31243,23.43894 z m 12.66061,-22.59741 c 3.08443,-2.16042 5.31778,-7.67699 4.50499,-11.12773 -0.8929,-3.79089 -4.96799,-7.90755 -8.5336,-8.62068 -3.7051,-0.74102 -9.05741,1.40298 -11.22383,4.49597 -0.90149,1.28706 -1.63069,4.27533 -1.63069,6.68256 0,6.15205 4.04852,10.20057 10.20057,10.20057 2.40723,0 5.3955,-0.7292 6.68256,-1.63069 z M 118.79688,264.724 c -3.18379,-3.18378 -3.86936,-7.90595 -1.80545,-12.43574 2.46782,-5.41628 2.09016,-5.37461 78.60161,-8.67364 50.57655,-2.18076 71.78537,-2.76785 73.17244,-2.02551 6.56365,3.51276 8.11386,11.89858 3.12233,16.89011 -3.67126,3.67126 0.17354,3.34195 -78.01401,6.68192 -75.16843,3.21099 -71.40689,3.2329 -75.07692,-0.43714 z m 67.57692,-27.96869 c -12.69414,-3.4247 -20.89296,-11.6738 -24.11923,-24.26715 -3.23925,-12.64405 2.62978,-27.40374 13.66747,-34.37153 16.79574,-10.60268 38.90218,-3.89032 47.27592,14.35478 3.32159,7.23726 3.05857,18.87816 -0.59463,26.31718 -3.21562,6.54798 -9.99336,13.20296 -16.27759,15.98277 -4.92257,2.17749 -15.38015,3.21735 -19.95194,1.98395 z m 13.79275,-23.12387 c 3.79738,-2.98702 5.16099,-7.96263 3.36213,-12.26791 -1.93206,-4.62409 -5.18887,-6.71645 -10.45431,-6.71645 -6.28505,0 -10.20057,4.03046 -10.20057,10.5 0,3.81039 0.52977,5.18362 2.92308,7.57692 3.66532,3.66533 10.32864,4.08612 14.36967,0.90744 z m 113.1658,-46.37924 c -8.1674,-1.98423 -14.57835,-5.61631 -20.73694,-11.74838 -21.3183,-21.22653 -15.40856,-57.730571 11.44779,-70.712058 17.15433,-8.291852 35.73365,-5.535486 49.67226,7.369211 10.18482,9.429347 14.77681,21.091527 13.89161,35.280257 -1.684,26.99247 -27.89634,46.21945 -54.27472,39.81097 z m 17.24771,-21.11053 c 13.3367,-3.96057 19.84809,-19.72203 13.35883,-32.33636 -8.34797,-16.227441 -31.88473,-16.399291 -40.27165,-0.29404 -6.64931,12.76854 -0.45139,28.41778 12.8767,32.51261 6.24738,1.9194 7.9221,1.93346 14.03612,0.11779 z"
     id="path3966"
     inkscape:connector-curvature="0" />
</svg>
