<?xml version="1.0" encoding="UTF-8" standalone="no"?>
<!-- Created with Inkscape (http://www.inkscape.org/) -->

<svg
   xmlns:dc="http://purl.org/dc/elements/1.1/"
   xmlns:cc="http://creativecommons.org/ns#"
   xmlns:rdf="http://www.w3.org/1999/02/22-rdf-syntax-ns#"
   xmlns:svg="http://www.w3.org/2000/svg"
   xmlns="http://www.w3.org/2000/svg"
   xmlns:sodipodi="http://sodipodi.sourceforge.net/DTD/sodipodi-0.dtd"
   xmlns:inkscape="http://www.inkscape.org/namespaces/inkscape"
   version="1.1"
   id="svg3915"
   width="506.73795"
   height="591.96051"
   viewBox="0 0 506.73795 591.96051"
   sodipodi:docname="adv-icon-1.svg"
   inkscape:version="0.92.4 (unknown)">
  <path
     d="M 52.183673,590.21583 C 27.535303,584.87814 7.1422835,564.17974 1.8290635,539.10719 -0.45480651,528.32987 -0.67644651,158.20416 1.5983135,153.77787 c 2.29295,-4.46168 7.41072,-7.60061 12.1841295,-7.47301 3.03996,0.0813 7.46565,2.04695 15.2687,6.78167 13.78616,8.36513 18.34839,10.03483 27.75904,10.15941 9.79273,0.12964 14.26229,-1.41567 28.89907,-9.99163 l 12.128,-7.10601 13.028627,-0.38869 13.02863,-0.38869 0.007,-19.85227 c 0.0104,-30.684347 3.02292,-46.261625 12.64761,-65.401757 22.38543,-44.516763 73.8661,-68.6165004 122.54991,-57.3695065 8.17158,1.8878076 8.97257,1.8799693 17.92771,-0.1754325 13.91636,-3.19413681 37.2198,-2.93293855 51.0124,0.5717774 31.51341,8.0075966 58.14647,29.5823676 72.30297,58.5708306 9.25105,18.943514 10.57086,25.637968 11.23031,56.963858 l 0.56611,26.89156 40.07079,0.007 c 23.76305,0.003 41.80571,0.48831 44.33378,1.19046 2.34466,0.65122 5.59767,2.77017 7.22892,4.7088 l 2.96591,3.52479 v 188.22895 c 0,128.51604 -0.39218,190.40614 -1.23625,195.09197 -0.67993,3.77466 -3.33407,11.23314 -5.89809,16.5744 -8.34219,17.37816 -23.87505,29.88165 -43.28996,34.84715 -8.72951,2.23262 -13.36374,2.28274 -202.77275,2.19289 -162.059607,-0.0774 -195.071647,-0.35935 -201.357147,-1.7205 z m 48.578307,-25.29189 c 0,-0.27581 -1.532687,-3.00834 -3.405987,-6.07229 -1.87328,-3.06396 -4.60581,-8.95397 -6.07228,-13.08891 l -2.66631,-7.51807 -0.31412,-177.25301 c -0.17277,-97.48915 -0.57984,-177.253 -0.90461,-177.253 -0.32478,0 -2.42151,0.76504 -4.6594,1.70009 -13.99613,5.84796 -31.06402,6.25451 -46.48356,1.10725 -4.62545,-1.54404 -8.66736,-2.80734 -8.98204,-2.80734 -0.31467,0 -0.43384,78.98313 -0.2648,175.51806 l 0.30733,175.51807 3.00852,6.41422 c 5.32679,11.35685 13.8812,18.87735 25.65967,22.55841 4.52718,1.41484 44.777587,2.47241 44.777587,1.17652 z m 355.38383,-2.64261 c 7.7106,-3.59414 16.44294,-12.16581 20.21426,-19.84228 l 3.19708,-6.50763 0.30674,-181.89701 0.30672,-181.89702 -33.84889,0.30666 -33.84891,0.30666 -0.57831,49.73493 c -0.62361,53.6298 -0.59477,53.39358 -6.9166,56.66273 -4.32579,2.23695 -8.48386,2.21604 -12.89461,-0.0649 -6.62188,-3.42427 -6.7912,-4.87667 -6.7912,-58.25518 v -48.575 l -83.85542,-0.042 -83.85542,-0.042 v 49.21565 c 0,53.99566 -0.0244,54.19936 -6.9019,57.75588 -4.30465,2.22604 -8.48913,2.22852 -12.7839,0.008 -6.32183,-3.26974 -6.293,-3.03352 -6.9166,-56.66332 l -0.57832,-49.73493 h -37.59036 -37.59036 v 181.01218 181.01204 l 3.00852,6.41422 c 5.32381,11.35049 13.85422,18.8535 25.65967,22.56924 3.9603,1.2465 33.16928,1.49235 155.81373,1.31146 l 150.93976,-0.22263 z M 281.49433,415.47605 c -2.06226,-1.01667 -12.60201,-11.13185 -23.42169,-22.4782 -18.97321,-19.89678 -19.67211,-20.79994 -19.67211,-25.42156 0,-3.90739 0.72585,-5.51771 3.93253,-8.72439 3.37412,-3.37412 4.71671,-3.93253 9.45502,-3.93253 h 5.52247 l 15.12331,15.00425 15.1233,15.00424 28.9678,-28.88376 28.96779,-28.88376 h 5.93118 c 5.08099,0 6.44132,0.51014 9.49004,3.55885 3.04396,3.04397 3.55885,4.41257 3.55885,9.4598 v 5.90095 l -33.75811,33.88438 c -18.56697,18.63641 -35.43117,34.67829 -37.47601,35.64864 -4.67128,2.21666 -7.02594,2.1892 -11.74437,-0.13691 z M 191.26177,118.67842 c 0.42349,-22.805321 0.87363,-28.259591 2.96245,-35.894498 4.92263,-17.992801 15.06398,-35.900164 27.8549,-49.185571 3.25147,-3.37717 5.91177,-6.393526 5.91177,-6.703012 0,-0.877328 -7.87492,0.630125 -16.73032,3.202591 -27.80499,8.077271 -49.15312,29.542801 -57.34427,57.659621 -2.11941,7.275063 -2.61587,12.576449 -3.11231,33.234119 l -0.59064,24.57831 h 20.27453 20.27453 z m 126.69109,1.15663 C 317.53278,95.665855 317.31763,93.537136 314.41638,84.847091 310.41292,72.855586 304.29508,62.53872 295.65354,53.20627 c -6.4761,-6.993884 -20.87077,-17.615139 -26.13965,-19.28742 -3.74559,-1.188803 -17.88203,7.968025 -27.64348,17.905968 -10.22349,10.408329 -15.15178,18.311331 -20.04356,32.141832 -3.52247,9.959071 -3.59175,10.576316 -4.0264,35.8684 l -0.44227,25.73493 h 50.52099 50.52098 z m 67.02525,0.57831 C 384.37781,92.47367 383.47171,87.523001 376.30599,73.031022 363.99068,48.124507 341.6557,32.163427 311.95374,27.043441 l -4.51909,-0.778993 7.20303,7.860837 c 9.37271,10.228654 16.81529,21.523979 21.46744,32.580306 7.11804,16.916783 7.84994,21.390748 8.40768,51.394519 l 0.51062,27.46987 h 20.24761 20.2476 z"
     id="path3987"
     inkscape:connector-curvature="0" />
</svg>
