<?xml version="1.0" encoding="UTF-8" standalone="no"?>
<!-- Created with Inkscape (http://www.inkscape.org/) -->

<svg
   xmlns:dc="http://purl.org/dc/elements/1.1/"
   xmlns:cc="http://creativecommons.org/ns#"
   xmlns:rdf="http://www.w3.org/1999/02/22-rdf-syntax-ns#"
   xmlns:svg="http://www.w3.org/2000/svg"
   xmlns="http://www.w3.org/2000/svg"
   xmlns:sodipodi="http://sodipodi.sourceforge.net/DTD/sodipodi-0.dtd"
   xmlns:inkscape="http://www.inkscape.org/namespaces/inkscape"
   version="1.1"
   id="svg80"
   width="525.88794"
   height="637.70099"
   viewBox="0 0 525.88794 637.70099"
   sodipodi:docname="cart-icon.svg"
   inkscape:version="0.92.4 (unknown)">
  <path
     d="M 49.0947,635.23562 C 19.55402,627.49738 -0.39784968,600.90859 0.00602032,569.81781 0.23293032,552.35042 34.76176,160.8485 36.3346,157.90961 c 3.3255,-6.21376 4.89447,-6.37751 61.10593,-6.37751 h 52.42554 v -25.32946 c 0,-13.9312 0.58964,-28.658482 1.31032,-32.727272 7.76706,-43.851522 40.00873,-78.743614 83.67259,-90.5508707 13.3969,-3.62268897 40.52943,-3.936732 53.81677,-0.622897 42.68786,10.6462657 75.40296,43.9494777 85.07263,86.6019477 1.20807,5.32874 2.17338,18.298752 2.64299,35.511672 l 0.73983,27.11688 h 52.9099 52.9099 l 3.55266,3.55268 c 1.95397,1.95396 3.87748,5.46045 4.27447,7.7922 0.39699,2.33174 8.6205,94.84733 18.27448,205.59018 11.62767,133.38341 17.30415,203.87575 16.8164,208.83117 -2.85316,28.9874 -25.57592,54.04151 -53.62452,59.1264 -5.09231,0.92317 -70.75637,1.31974 -210.70129,1.27248 -196.3311,-0.0663 -203.61678,-0.15072 -212.4385,-2.46159 z m 427.72652,-28.38898 c 14.14,-6.96152 22.13576,-19.79528 22.13576,-35.5295 0,-6.69867 -30.93515,-368.67643 -33.07852,-387.05776 l -0.76324,-6.54546 h -44.17004 -44.17002 v 41.61993 41.61992 l 6.72188,3.28871 c 8.27074,4.0465 16.11763,12.35788 20.5067,21.7206 2.86203,6.10527 3.31688,8.69967 3.31688,18.91967 0,10.46677 -0.40864,12.6763 -3.51383,18.99981 -4.47855,9.12026 -12.63658,17.27633 -21.7479,21.74268 -6.3131,3.09466 -8.54586,3.50741 -18.99801,3.51203 -10.36768,0.005 -12.70368,-0.41692 -18.73923,-3.38111 -9.97215,-4.89756 -16.38578,-10.91998 -21.18788,-19.89553 -3.70676,-6.92823 -4.27884,-9.25097 -4.70611,-19.10775 -0.40202,-9.27366 -0.018,-12.46405 2.21337,-18.38545 3.49474,-9.27432 13.01354,-19.73626 21.92311,-24.09531 l 6.78245,-3.31835 v -41.61992 -41.61993 h -86.64935 -86.64935 v 41.55311 41.55313 l 6.25425,2.92933 c 8.68982,4.07009 17.1284,12.80705 21.61853,22.38296 3.23468,6.89845 3.77351,9.4939 3.75313,18.07793 -0.0434,18.28066 -8.93937,32.86871 -24.80741,40.68052 -23.23372,11.43794 -50.22424,1.78182 -61.2988,-21.93023 -3.0254,-6.4778 -3.48983,-8.98459 -3.46471,-18.7013 0.0244,-9.46078 0.53786,-12.29633 3.2732,-18.07792 4.65821,-9.84587 11.03425,-16.53705 20.34679,-21.35246 l 8.13398,-4.20598 0.005,-41.45454 0.005,-41.45455 h -44.88311 c -24.68571,0 -44.88312,0.34437 -44.88312,0.76527 0,0.42089 -7.61111,87.80271 -16.91359,194.18181 -9.67516,110.64103 -16.69045,196.88473 -16.3922,201.52045 1.14592,17.81064 14.36441,32.4759 32.56611,36.13048 2.80682,0.56356 96.00366,0.94008 207.10407,0.8367 l 202.00074,-0.18796 z M 171.01615,320.77885 c 12.90188,-6.61576 13.44844,-24.36235 0.99119,-32.18469 -3.13168,-1.9665 -5.57329,-2.43986 -10.64881,-2.06453 -16.26809,1.20299 -22.74961,20.31998 -10.73212,31.65394 6.31659,5.95732 12.33842,6.72379 20.38974,2.59528 z m 197.24086,1.5212 c 5.67023,-1.57489 11.85944,-8.41238 12.96914,-14.32755 1.13475,-6.04881 -2.31691,-14.75566 -7.23904,-18.26052 -5.84416,-4.16141 -15.38073,-4.5317 -20.90026,-0.81153 -12.07892,8.14121 -11.10498,25.79036 1.77502,32.16597 5.80162,2.87182 7.07492,2.98908 13.39514,1.23363 z M 349.34659,126.79647 c 0,-20.5755 -0.41786,-26.39422 -2.48452,-34.597402 C 340.57333,67.23727 324.0719,46.686146 301.34659,35.513425 287.42067,28.666851 277.77127,26.465269 262.07387,26.55306 c -24.19875,0.135335 -43.08149,8.182656 -60.61657,25.833163 -8.23895,8.293177 -11.19102,12.376772 -15.86107,21.940513 -7.8824,16.142252 -9.54834,25.579222 -9.54834,54.087874 v 23.11749 h 86.64935 86.64935 z"
     id="path3824"
     inkscape:connector-curvature="0" />
</svg>
