<?xml version="1.0" encoding="UTF-8" standalone="no"?>
<!-- Created with Inkscape (http://www.inkscape.org/) -->

<svg
   xmlns:dc="http://purl.org/dc/elements/1.1/"
   xmlns:cc="http://creativecommons.org/ns#"
   xmlns:rdf="http://www.w3.org/1999/02/22-rdf-syntax-ns#"
   xmlns:svg="http://www.w3.org/2000/svg"
   xmlns="http://www.w3.org/2000/svg"
   xmlns:sodipodi="http://sodipodi.sourceforge.net/DTD/sodipodi-0.dtd"
   xmlns:inkscape="http://www.inkscape.org/namespaces/inkscape"
   version="1.1"
   id="svg71"
   width="108.44961"
   height="102.43513"
   viewBox="0 0 108.4496 102.43513"
   sodipodi:docname="choosen-icon.svg"
   inkscape:version="0.92.4 (unknown)">
  <path
     d="m 20.099952,101.91889 c -0.2314,-0.27881 -0.41449,-1.17881 -0.40687,-1.999997 0.008,-0.821184 1.27537,-8.797606 2.81723,-17.725382 l 2.80338,-16.23232 -6.67569,-6.469414 C 5.1660215,46.43609 0.32980153,41.493021 0.09676153,40.540893 c -0.33047,-1.35015 0.19224,-2.456854 1.46553997,-3.102902 0.76113,-0.386182 6.49573,-1.345491 17.8970105,-2.993888 9.22735,-1.33409 16.80701,-2.459966 16.84369,-2.501946 0.03667,-0.04198 3.447267,-6.932577 7.5791,-15.312438 4.131834,-8.3798622 7.820176,-15.5438623 8.196314,-15.92000058 0.920125,-0.92012462 3.295389,-0.9523879 4.190851,-0.0569245 0.344829,0.34482982 4.017872,7.49787248 8.162317,15.89565008 4.144445,8.397778 7.576298,15.309631 7.626339,15.359674 0.05004,0.05004 7.645002,1.18666 16.877683,2.525815 17.547744,2.545216 18.759324,2.819818 19.312664,4.377172 0.70311,1.978876 0.56139,2.138121 -17.834299,20.039548 l -7.308333,7.111968 0.827184,4.871607 c 0.454954,2.679382 1.691703,9.893145 2.748333,16.030585 1.923056,11.170061 2.256074,14.458097 1.537149,15.177017 -0.217763,0.21776 -1.260694,0.384 -2.409126,0.384 -2.374023,0 -0.997559,0.63926 -18.689258,-8.679676 -6.975312,-3.674176 -12.794038,-6.680323 -12.930502,-6.680323 -0.136468,0 -4.437392,2.21335 -9.557616,4.918554 -20.52892,10.846195 -19.67534,10.441445 -22.02001,10.441445 -1.51778,0 -2.20648,-0.13899 -2.51184,-0.50694 z"
     id="path81"
     inkscape:connector-curvature="0" />
</svg>
