<?xml version="1.0" encoding="UTF-8" standalone="no"?>
<!-- Created with Inkscape (http://www.inkscape.org/) -->

<svg
   xmlns:dc="http://purl.org/dc/elements/1.1/"
   xmlns:cc="http://creativecommons.org/ns#"
   xmlns:rdf="http://www.w3.org/1999/02/22-rdf-syntax-ns#"
   xmlns:svg="http://www.w3.org/2000/svg"
   xmlns="http://www.w3.org/2000/svg"
   xmlns:sodipodi="http://sodipodi.sourceforge.net/DTD/sodipodi-0.dtd"
   xmlns:inkscape="http://www.inkscape.org/namespaces/inkscape"
   version="1.1"
   id="svg71"
   width="65.654823"
   height="88.953789"
   viewBox="0 0 65.654823 88.953789"
   sodipodi:docname="contact-icon-3.svg"
   inkscape:version="0.92.4 (unknown)">
  <metadata
     id="metadata77">
    <rdf:RDF>
      <cc:Work
         rdf:about="">
        <dc:format>image/svg+xml</dc:format>
        <dc:type
           rdf:resource="http://purl.org/dc/dcmitype/StillImage" />
        <dc:title></dc:title>
      </cc:Work>
    </rdf:RDF>
  </metadata>
  <defs
     id="defs75" />
  <sodipodi:namedview
     pagecolor="#ffffff"
     bordercolor="#666666"
     borderopacity="1"
     objecttolerance="10"
     gridtolerance="10"
     guidetolerance="10"
     inkscape:pageopacity="0"
     inkscape:pageshadow="2"
     inkscape:window-width="1920"
     inkscape:window-height="978"
     id="namedview73"
     showgrid="false"
     inkscape:zoom="2.5877194"
     inkscape:cx="177.03058"
     inkscape:cy="42.061585"
     inkscape:window-x="0"
     inkscape:window-y="27"
     inkscape:window-maximized="1"
     inkscape:current-layer="svg71" />
  <path
     style="fill:#010101;stroke-width:0.31999999"
     d="M 31.426319,87.91689 C 21.972559,80.38745 11.589339,67.512305 6.1976293,56.633429 2.1940593,48.555422 0.34438927,41.879861 0.03717927,34.399999 -0.36801073,24.534304 2.5323893,16.702138 9.0482093,10.066905 15.655529,3.3384907 23.583179,0 32.953289,0 c 8.50185,0 16.389742,3.0351007 22.402039,8.6198538 3.342138,3.1044722 5.392055,5.8445752 7.316691,9.7801452 2.555136,5.224846 2.983885,7.271709 2.982803,14.24 -6.4e-4,4.890656 -0.121219,6.462208 -0.69278,9.038361 -2.199354,9.912966 -7.555901,20.640611 -15.060361,30.161638 -3.031136,3.845647 -8.725172,10.048284 -11.652332,12.693145 -2.75865,2.492598 -5.09689,4.420643 -5.36114,4.420643 -0.088,0 -0.74585,-0.466602 -1.46189,-1.036896 z m 6.7276,-40.255746 c 4.22428,-1.304749 8.034876,-4.674585 10.027371,-8.867552 1.06641,-2.244128 1.186631,-2.774022 1.295946,-5.712134 0.195555,-5.256043 -1.139258,-8.74116 -4.713965,-12.307874 -3.376832,-3.369287 -6.826802,-4.751297 -11.896982,-4.765762 -4.60114,-0.01313 -8.64706,1.629477 -11.81392,4.796335 -8.30834,8.308335 -5.30648,22.195483 5.73889,26.54916 3.52311,1.388681 7.51328,1.496777 11.36266,0.307827 z"
     id="path81"
     inkscape:connector-curvature="0" />
</svg>
