<?xml version="1.0" encoding="UTF-8" standalone="no"?>
<!-- Created with Inkscape (http://www.inkscape.org/) -->

<svg
   xmlns:dc="http://purl.org/dc/elements/1.1/"
   xmlns:cc="http://creativecommons.org/ns#"
   xmlns:rdf="http://www.w3.org/1999/02/22-rdf-syntax-ns#"
   xmlns:svg="http://www.w3.org/2000/svg"
   xmlns="http://www.w3.org/2000/svg"
   xmlns:sodipodi="http://sodipodi.sourceforge.net/DTD/sodipodi-0.dtd"
   xmlns:inkscape="http://www.inkscape.org/namespaces/inkscape"
   version="1.1"
   id="svg61"
   width="71.017464"
   height="45.898777"
   viewBox="0 0 71.017464 45.898777"
   sodipodi:docname="contact-icon-2.svg"
   inkscape:version="0.92.4 (unknown)">
  <metadata
     id="metadata67">
    <rdf:RDF>
      <cc:Work
         rdf:about="">
        <dc:format>image/svg+xml</dc:format>
        <dc:type
           rdf:resource="http://purl.org/dc/dcmitype/StillImage" />
        <dc:title></dc:title>
      </cc:Work>
    </rdf:RDF>
  </metadata>
  <defs
     id="defs65" />
  <sodipodi:namedview
     pagecolor="#ffffff"
     bordercolor="#666666"
     borderopacity="1"
     objecttolerance="10"
     gridtolerance="10"
     guidetolerance="10"
     inkscape:pageopacity="0"
     inkscape:pageshadow="2"
     inkscape:window-width="1920"
     inkscape:window-height="978"
     id="namedview63"
     showgrid="false"
     inkscape:zoom="4.2647687"
     inkscape:cx="138.80407"
     inkscape:cy="4.5629223"
     inkscape:window-x="0"
     inkscape:window-y="27"
     inkscape:window-maximized="1"
     inkscape:current-layer="svg61" />
  <path
     style="fill:#010101;stroke-width:0.31999999"
     d="m 6.0871854,45.703658 c -0.968,-0.129095 -2.0728,-0.334871 -2.45511,-0.457277 -1.04895,-0.33585 -2.89847998,-2.552138 -3.28180998,-3.93258 -0.44427,-1.599907 -0.47707,-35.9426494 -0.0343,-35.9426494 0.36417,0 2.97001998,1.57321 14.47414858,8.7383754 15.816828,9.851259 19.618506,12.061625 20.745178,12.061625 1.091021,0 3.572944,-1.428336 17.431927,-10.031996 C 68.531712,6.4767148 70.520643,5.3333865 70.823494,5.8745523 c 0.158275,0.2828195 0.23432,8.2183407 0.172509,18.0011937 l -0.110547,17.495406 -0.934,1.378672 c -0.513699,0.758272 -1.593303,1.766272 -2.399117,2.24 l -1.46512,0.861328 -29.12,0.04361 C 20.951218,45.918752 7.0552154,45.832752 6.0872154,45.703658 Z M 29.630914,15.115877 C 26.651963,13.276901 20.112349,9.2160304 15.098437,6.0917187 L 5.9822354,0.41115149 8.9947124,0.18310297 c 3.5716076,-0.27037553 55.9724766,-0.22923098 55.9724766,0.043949 0,0.4191284 -28.942973,18.27730303 -29.575188,18.24825803 -0.189648,-0.0087 -2.782137,-1.520458 -5.761087,-3.359433 z"
     id="path102"
     inkscape:connector-curvature="0" />
</svg>
