<?xml version="1.0" encoding="UTF-8" standalone="no"?>
<!-- Created with Inkscape (http://www.inkscape.org/) -->

<svg
   xmlns:dc="http://purl.org/dc/elements/1.1/"
   xmlns:cc="http://creativecommons.org/ns#"
   xmlns:rdf="http://www.w3.org/1999/02/22-rdf-syntax-ns#"
   xmlns:svg="http://www.w3.org/2000/svg"
   xmlns="http://www.w3.org/2000/svg"
   xmlns:sodipodi="http://sodipodi.sourceforge.net/DTD/sodipodi-0.dtd"
   xmlns:inkscape="http://www.inkscape.org/namespaces/inkscape"
   version="1.1"
   id="svg61"
   width="38.489754"
   height="38.376934"
   viewBox="0 0 38.489754 38.376935"
   sodipodi:docname="del-icon.svg"
   inkscape:version="0.92.4 (unknown)">
  <path
     d="M 1.823047,36.555247 0,34.733557 7.924837,26.978466 15.849673,19.223375 7.955237,11.42315 0.060802,3.6229237 1.891365,1.8114619 3.721928,0 l 7.915186,7.7261351 7.915186,7.7261359 0.708686,-0.58452 c 0.389778,-0.321487 3.7577,-3.602964 7.484272,-7.2921727 l 6.775584,-6.70765104 1.984458,1.71916344 1.984454,1.7191632 -7.515319,7.4274341 -7.515319,7.427433 7.315279,7.290058 c 4.023404,4.009532 7.315279,7.37425 7.315279,7.477149 0,0.102899 -0.779555,0.956963 -1.732346,1.89792 l -1.732349,1.710829 -7.337978,-7.241761 c -4.035887,-3.982968 -7.473745,-7.24176 -7.639682,-7.24176 -0.165938,0 -1.016291,0.731746 -1.889676,1.626102 -0.873383,0.894356 -4.405775,4.342116 -7.849759,7.661691 l -6.26179,6.035587 z"
     id="path102"
     inkscape:connector-curvature="0" />
</svg>
