<?xml version="1.0" encoding="UTF-8" standalone="no"?>
<!-- Created with Inkscape (http://www.inkscape.org/) -->

<svg
   xmlns:dc="http://purl.org/dc/elements/1.1/"
   xmlns:cc="http://creativecommons.org/ns#"
   xmlns:rdf="http://www.w3.org/1999/02/22-rdf-syntax-ns#"
   xmlns:svg="http://www.w3.org/2000/svg"
   xmlns="http://www.w3.org/2000/svg"
   xmlns:sodipodi="http://sodipodi.sourceforge.net/DTD/sodipodi-0.dtd"
   xmlns:inkscape="http://www.inkscape.org/namespaces/inkscape"
   version="1.1"
   id="svg90"
   width="511.75766"
   height="487.19165"
   viewBox="0 0 511.75766 487.19165"
   sodipodi:docname="favorites-icon.svg"
   inkscape:version="0.92.4 (unknown)">
  <path
     d="m 101.82016,486.85009 c -2.86181,-1.14398 -6.95928,-5.6967 -8.02018,-8.91125 -0.89419,-2.70941 1.12082,-16.2269 12.47688,-83.69994 7.44882,-44.25778 13.5433,-80.8838 13.5433,-81.39115 0,-0.50736 -26.04012,-26.10566 -57.86694,-56.88511 C 30.1264,225.18319 3.0730101,198.26875 1.8345901,196.15277 -2.1519599,189.34135 0.57986011,180.85332 7.8847001,177.35451 10.94183,175.89023 38.58097,171.58963 149.99042,155.24312 l 21.67025,-3.17956 35.67653,-73.03178 C 229.28216,34.109247 244.13855,4.8453276 245.93617,3 c 2.64621,-2.716431 3.52742,-3 9.32266,-3 5.42985,0 6.81545,0.379032 9.13908,2.5 1.74021,1.5884276 15.99927,29.209052 39.10571,75.75 20.00176,40.2875 36.51904,73.25 36.70506,73.25 0.18602,0 36.65137,5.15478 81.03411,11.45507 87.73061,12.45367 85.67466,12.0155 88.97091,18.96182 1.86322,3.92644 2.02351,7.0883 0.57065,11.25599 -0.65827,1.88833 -22.49278,23.99462 -59.90579,60.65146 -42.10588,41.25485 -58.75027,58.17784 -58.44958,59.4279 1.64457,6.83701 27.39118,157.0943 27.39118,159.85504 0,7.6553 -5.92052,13.38216 -13.84175,13.38898 -3.77308,0.003 -13.78292,-4.92974 -76.42422,-37.66293 -39.64536,-20.71666 -72.56658,-37.64812 -73.15825,-37.62545 -0.59168,0.0227 -33.02578,17.02686 -72.07578,37.7871 -61.64773,32.77391 -71.65861,37.79256 -76,38.1003 -2.75,0.19494 -5.675,0.0846 -6.5,-0.24519 z m 92,-75.19362 c 53.07953,-28.21351 57.88439,-30.56518 62.5,-30.58971 4.64442,-0.0247 9.44275,2.29706 67.47241,32.64759 34.35982,17.97079 62.63536,32.51121 62.83453,32.31204 0.19917,-0.19917 -5.11598,-31.7781 -11.81144,-70.1754 -10.64776,-61.06302 -12.03405,-70.27897 -11.06037,-73.52882 0.89854,-2.99904 10.93118,-13.31973 52.02518,-53.51886 39.47631,-38.61668 50.53323,-49.9585 49.22583,-50.49422 -0.92738,-0.38 -32.28614,-5.01742 -69.68614,-10.30539 -45.83866,-6.48111 -69.14066,-10.17727 -71.5,-11.34134 -3.2636,-1.61021 -5.69557,-6.09805 -36.00581,-66.44329 l -32.5058,-64.716441 -30.88453,63.248681 c -16.98649,34.78678 -31.83388,64.30251 -32.9942,65.59051 -1.16031,1.288 -2.8502,2.7412 -3.7553,3.22933 -0.9051,0.48813 -32.1801,5.39577 -69.5,10.90587 -37.31989,5.51009 -69.00949,10.35689 -70.42131,10.77067 -2.40178,0.7039 0.73288,3.95656 48.71614,50.5499 41.02331,39.835 51.47727,50.50087 52.25372,53.31294 0.79435,2.87691 -1.10549,15.89941 -10.46057,71.70242 -6.28717,37.50288 -11.67072,69.21321 -11.96345,70.46741 l -0.53223,2.28036 5.27667,-2.67055 c 2.90217,-1.46881 31.15167,-16.42397 62.77667,-33.2337 z"
     id="path3803"
     inkscape:connector-curvature="0" />
</svg>
