<?xml version="1.0" encoding="UTF-8" standalone="no"?>
<!-- Created with Inkscape (http://www.inkscape.org/) -->

<svg
   xmlns:dc="http://purl.org/dc/elements/1.1/"
   xmlns:cc="http://creativecommons.org/ns#"
   xmlns:rdf="http://www.w3.org/1999/02/22-rdf-syntax-ns#"
   xmlns:svg="http://www.w3.org/2000/svg"
   xmlns="http://www.w3.org/2000/svg"
   xmlns:sodipodi="http://sodipodi.sourceforge.net/DTD/sodipodi-0.dtd"
   xmlns:inkscape="http://www.inkscape.org/namespaces/inkscape"
   version="1.1"
   id="svg45"
   width="475.7468"
   height="454.32944"
   viewBox="0 0 475.7468 454.32944"
   sodipodi:docname="favorites-icon-2.svg"
   inkscape:version="0.92.4 (unknown)">
  <g
     id="g55"
     transform="translate(-0.7179996,-11.575099)">
    <path
       d="m 382.13593,286.60195 c 2.78439,-2.81942 5.27224,-5.12622 5.52855,-5.12622 0.25631,0 -1.81212,2.3068 -4.59651,5.12622 -2.7844,2.81941 -5.27225,5.12621 -5.52856,5.12621 -0.25631,0 1.81213,-2.3068 4.59652,-5.12621 z m -288.963884,-1.16505 -5.094375,-5.35923 5.359223,5.09438 c 4.978887,4.73284 5.786182,5.62407 5.094376,5.62407 -0.145669,0 -2.557319,-2.41165 -5.359224,-5.35922 z M 345.32039,270.29127 c 2.52457,-2.56311 4.79984,-4.6602 5.05615,-4.6602 0.25631,0 -1.59954,2.09709 -4.12411,4.6602 -2.52457,2.5631 -4.79983,4.66019 -5.05614,4.66019 -0.25631,0 1.59954,-2.09709 4.1241,-4.66019 z m -216.69903,-2.3301 c -2.26395,-2.3068 -3.90657,-4.19418 -3.65025,-4.19418 0.25631,0 2.31834,1.88738 4.58229,4.19418 2.26395,2.30679 3.90657,4.19417 3.65026,4.19417 -0.25632,0 -2.31835,-1.88738 -4.5823,-4.19417 z m -69.47193,-15.61165 -4.625157,-4.89321 4.893204,4.62516 c 4.546852,4.29778 5.320637,5.16125 4.625157,5.16125 -0.147426,0 -2.349367,-2.20194 -4.893204,-4.8932 z m 361.20009,-3.02913 c 2.78439,-2.81942 5.27225,-5.12621 5.52856,-5.12621 0.25631,0 -1.81213,2.30679 -4.59652,5.12621 -2.78439,2.81942 -5.27225,5.12622 -5.52856,5.12622 -0.25631,0 1.81213,-2.3068 4.59652,-5.12622 z m -43.33981,-9.78641 c 2.52457,-2.5631 4.79984,-4.66019 5.05615,-4.66019 0.25631,0 -1.59954,2.09709 -4.12411,4.66019 -2.52456,2.56311 -4.79983,4.6602 -5.05614,4.6602 -0.25631,0 1.59954,-2.09709 4.1241,-4.6602 z M 96.93204,237.20389 c -2.26395,-2.3068 -3.906562,-4.19418 -3.650255,-4.19418 0.25631,0 2.318344,1.88738 4.582294,4.19418 2.263951,2.30679 3.906571,4.19417 3.650251,4.19417 -0.25631,0 -2.31834,-1.88738 -4.58229,-4.19417 z m -71.336009,-17.47573 -4.625157,-4.89321 4.893204,4.62516 c 2.691262,2.54384 4.893204,4.74578 4.893204,4.89321 0,0.69548 -0.863473,-0.0783 -5.161251,-4.62516 z m 432.035039,-6.75728 c 2.7844,-2.81942 5.27225,-5.12622 5.52856,-5.12622 0.25631,0 -1.81213,2.3068 -4.59652,5.12622 -2.78439,2.81941 -5.27224,5.12621 -5.52855,5.12621 -0.25631,0 1.81212,-2.3068 4.59651,-5.12621 z M 408.021,209.65206 c 2.19019,-2.33796 3.65815,-4.60715 3.26214,-5.04262 -0.39601,-0.43549 -0.19576,-0.49009 0.44502,-0.12134 0.64078,0.36875 1.16505,0.76809 1.16505,0.88742 0,0.11932 -1.99223,2.0868 -4.42719,4.37217 l -4.42718,4.15523 z M 66.738729,207.9469 c -1.975064,-2.06152 -2.289478,-2.86234 -1.339424,-3.41156 0.682809,-0.39473 0.921038,-0.36496 0.529394,0.0662 -0.391643,0.43112 0.420807,1.96632 1.805444,3.41157 1.384638,1.44525 2.307814,2.62773 2.051503,2.62773 -0.25631,0 -1.627422,-1.21225 -3.046917,-2.69388 z"
       id="path69"
       inkscape:connector-curvature="0" />
    <path
       d="m 85.894738,452.03884 c 0,-1.28155 0.211548,-1.80582 0.470108,-1.16505 0.258558,0.64078 0.258558,1.68932 0,2.3301 -0.25856,0.64078 -0.470108,0.1165 -0.470108,-1.16505 z M 390.52428,278.2136 c 1.73898,-1.79418 3.37149,-3.26214 3.6278,-3.26214 0.25631,0 -0.95678,1.46796 -2.69576,3.26214 -1.73898,1.79417 -3.3715,3.26213 -3.62781,3.26213 -0.25631,0 0.95679,-1.46796 2.69577,-3.26213 z m -304.847248,-0.23301 -2.259555,-2.56311 2.563107,2.25955 c 2.395609,2.1119 2.990528,2.86666 2.259555,2.86666 -0.166954,0 -1.320352,-1.15339 -2.563107,-2.5631 z m 253.119088,-1.16505 c 0.92784,-1.02524 1.89668,-1.86408 2.15299,-1.86408 0.25631,0 -0.29311,0.83884 -1.22095,1.86408 -0.92784,1.02524 -1.89668,1.86408 -2.15299,1.86408 -0.25631,0 0.29312,-0.83884 1.22095,-1.86408 z m -203.2431,-2.09709 -2.73748,-3.02913 3.02912,2.73749 c 1.66602,1.50561 3.02913,2.86872 3.02913,3.02912 0,0.72006 -0.76905,0.0861 -3.32077,-2.73748 z m -83.429387,-29.35922 -2.259555,-2.56311 2.563107,2.25955 c 2.395609,2.1119 2.990529,2.86666 2.259555,2.86666 -0.166953,0 -1.320351,-1.15339 -2.563107,-2.5631 z m 318.361807,0.69903 c 0.92784,-1.02525 1.89668,-1.86408 2.15299,-1.86408 0.25631,0 -0.29311,0.83883 -1.22095,1.86408 -0.92783,1.02524 -1.89668,1.86407 -2.15299,1.86407 -0.25631,0 0.29312,-0.83883 1.22095,-1.86407 z m -266.62174,-2.09709 -2.73749,-3.02913 3.02913,2.73748 c 1.66602,1.50562 3.02913,2.86873 3.02913,3.02913 0,0.72006 -0.76906,0.0861 -3.32077,-2.73748 z m 324.87417,-3.02913 c 1.73898,-1.79417 3.37149,-3.26213 3.6278,-3.26213 0.25631,0 -0.95678,1.46796 -2.69576,3.26213 -1.73898,1.79418 -3.37149,3.26214 -3.6278,3.26214 -0.25631,0 0.95678,-1.46796 2.69576,-3.26214 z m -26.56311,-25.63107 c 0.92784,-1.02524 1.89668,-1.86407 2.15299,-1.86407 0.25631,0 -0.29311,0.83883 -1.22095,1.86407 -0.92783,1.02525 -1.89668,1.86408 -2.15299,1.86408 -0.25631,0 0.29312,-0.83883 1.22095,-1.86408 z m -330.000383,-2.09708 -2.737483,-3.02913 3.029126,2.73748 c 1.66602,1.50562 3.029127,2.86872 3.029127,3.02913 0,0.72005 -0.769052,0.0861 -3.32077,-2.73748 z m -54.058253,-0.93204 -2.737483,-3.02913 3.029126,2.73748 c 1.66602,1.50562 3.029126,2.86873 3.029126,3.02913 0,0.72006 -0.769051,0.0861 -3.320769,-2.73748 z M 466.91251,203.8835 c 3.86233,-4.11513 4.69915,-4.85508 4.69915,-4.15523 0,0.14959 -1.99224,2.14182 -4.42719,4.42719 l -4.42718,4.15522 z M 1.8640777,180.46364 c 0,-0.19354 0.7339806,-0.92752 1.631068,-1.63107 1.4782654,-1.15934 1.5112319,-1.12637 0.3518962,0.3519 -1.2175874,1.55254 -1.9829642,2.04627 -1.9829642,1.27917 z M 473.35684,179.18447 c -1.15933,-1.47827 -1.12637,-1.51124 0.3519,-0.3519 0.89709,0.70355 1.63107,1.43753 1.63107,1.63107 0,0.7671 -0.76538,0.27337 -1.98297,-1.27917 z"
       id="path67"
       inkscape:connector-curvature="0" />
    <path
       d="m 334.60195,281.00971 c 1.20396,-1.28155 2.39872,-2.33009 2.65503,-2.33009 0.25631,0 -0.51903,1.04854 -1.72299,2.33009 -1.20397,1.28156 -2.39873,2.3301 -2.65504,2.3301 -0.25631,0 0.51904,-1.04854 1.723,-2.3301 z m -193.93463,-1.16505 -2.25955,-2.5631 2.56311,2.25955 c 2.39561,2.1119 2.99053,2.86666 2.25955,2.86666 -0.16695,0 -1.32035,-1.1534 -2.56311,-2.56311 z m -59.650483,-6.52427 -2.259554,-2.5631 2.563106,2.25955 c 2.39561,2.11189 2.990529,2.86666 2.259555,2.86666 -0.166953,0 -1.320351,-1.1534 -2.563107,-2.56311 z m 313.235593,1.33943 c 0,-0.16041 1.36311,-1.52351 3.02913,-3.02913 l 3.02913,-2.73748 -2.73749,3.02912 c -2.55171,2.82358 -3.32077,3.45754 -3.32077,2.73749 z m -27.96116,-24.40739 c 1.20396,-1.28155 2.39872,-2.3301 2.65503,-2.3301 0.25631,0 -0.51903,1.04855 -1.72299,2.3301 -1.20397,1.28155 -2.39873,2.3301 -2.65504,2.3301 -0.25631,0 0.51904,-1.04855 1.723,-2.3301 z m -257.31327,-1.16505 -2.25955,-2.5631 2.5631,2.25955 c 2.39562,2.11189 2.99054,2.86666 2.25956,2.86666 -0.16695,0 -1.32035,-1.1534 -2.56311,-2.56311 z m -61.514561,-8.38835 -2.259555,-2.5631 2.563107,2.25955 c 1.409709,1.24276 2.563107,2.39616 2.563107,2.5631 0,0.73098 -0.754764,0.13606 -2.866659,-2.25955 z M 434.3301,235.33981 c 1.20396,-1.28155 2.39873,-2.3301 2.65504,-2.3301 0.25631,0 -0.51904,1.04855 -1.723,2.3301 -1.20396,1.28155 -2.39872,2.3301 -2.65503,2.3301 -0.25631,0 0.51903,-1.04855 1.72299,-2.3301 z m -36.34951,-15.84466 c 1.20396,-1.28155 2.39872,-2.3301 2.65503,-2.3301 0.25631,0 -0.51903,1.04855 -1.72299,2.3301 -1.20396,1.28155 -2.39873,2.3301 -2.65504,2.3301 -0.25631,0 0.51904,-1.04855 1.723,-2.3301 z m -320.691908,-1.16505 -2.259555,-2.56311 2.563107,2.25955 c 2.395609,2.1119 2.990529,2.86667 2.259555,2.86667 -0.166953,0 -1.320352,-1.1534 -2.563107,-2.56311 z m -63.862674,-10.71845 -1.775522,-2.09708 2.097087,1.77552 c 1.970745,1.66856 2.52139,2.41865 1.775523,2.41865 -0.176861,0 -1.12055,-0.94369 -2.097088,-2.09709 z"
       id="path65"
       inkscape:connector-curvature="0" />
    <path
       d="m 109.86169,301.28156 c -1.15933,-1.47827 -1.12637,-1.51124 0.3519,-0.3519 0.89709,0.70355 1.63107,1.43753 1.63107,1.63106 0,0.76711 -0.76538,0.27338 -1.98297,-1.27916 z m 220.08006,-15.61165 c 1.20396,-1.28156 2.39873,-2.3301 2.65504,-2.3301 0.25631,0 -0.51904,1.04854 -1.723,2.3301 -1.20396,1.28155 -2.39872,2.33009 -2.65503,2.33009 -0.25631,0 0.51903,-1.04854 1.72299,-2.33009 z m -185.09826,-1.63107 -1.77553,-2.09709 2.09709,1.77553 c 1.97074,1.66855 2.52139,2.41865 1.77553,2.41865 -0.17687,0 -1.12056,-0.94369 -2.09709,-2.09709 z m -68.486847,-15.37864 -2.259555,-2.56311 2.563107,2.25955 c 2.395609,2.1119 2.990529,2.86666 2.259555,2.86666 -0.166953,0 -1.320351,-1.15339 -2.563107,-2.5631 z m 325.352097,-1.63107 c 1.20396,-1.28155 2.39873,-2.3301 2.65504,-2.3301 0.25631,0 -0.51904,1.04855 -1.723,2.3301 -1.20396,1.28155 -2.39872,2.3301 -2.65503,2.3301 -0.25631,0 0.51903,-1.04855 1.72299,-2.3301 z m -40.07767,-12.11651 c 1.20396,-1.28155 2.39873,-2.33009 2.65504,-2.33009 0.25631,0 -0.51904,1.04854 -1.723,2.33009 -1.20396,1.28156 -2.39872,2.3301 -2.65503,2.3301 -0.25631,0 0.51903,-1.04854 1.72299,-2.3301 z m -248.4769,-1.63106 -1.77553,-2.09709 2.09709,1.77552 c 1.97074,1.66856 2.52139,2.41865 1.77552,2.41865 -0.17686,0 -1.12055,-0.94369 -2.09708,-2.09708 z m -70.350925,-17.24272 -2.259555,-2.56311 2.563107,2.25955 c 2.395609,2.1119 2.990528,2.86666 2.259555,2.86666 -0.166954,0 -1.320352,-1.15339 -2.563107,-2.5631 z M 438.9903,230.67961 c 1.20396,-1.28155 2.39872,-2.33009 2.65503,-2.33009 0.25631,0 -0.51903,1.04854 -1.72299,2.33009 -1.20397,1.28156 -2.39873,2.3301 -2.65504,2.3301 -0.25631,0 0.51904,-1.04854 1.723,-2.3301 z m -45.66991,-6.52427 c 1.20396,-1.28155 2.39873,-2.33009 2.65504,-2.33009 0.25631,0 -0.51904,1.04854 -1.723,2.33009 -1.20396,1.28156 -2.39872,2.3301 -2.65503,2.3301 -0.25631,0 0.51903,-1.04854 1.72299,-2.3301 z m -311.855546,-1.63107 -1.775523,-2.09708 2.097088,1.77552 c 1.153398,0.97654 2.097087,1.92023 2.097087,2.09709 0,0.74586 -0.750099,0.19522 -2.418652,-1.77553 z m -72.6691084,-19.57281 -2.7374831,-3.02913 3.0291263,2.73748 c 1.6660192,1.50562 3.0291262,2.86873 3.0291262,3.02913 0,0.72006 -0.769051,0.0861 -3.3207694,-2.73748 z"
       id="path63"
       inkscape:connector-curvature="0" />
    <path
       d="m 369.08738,298.71845 c 1.73898,-1.79417 3.3715,-3.26214 3.62781,-3.26214 0.25631,0 -0.95679,1.46797 -2.69577,3.26214 -1.73898,1.79418 -3.37149,3.26214 -3.6278,3.26214 -0.25631,0 0.95678,-1.46796 2.69576,-3.26214 z m -263.35961,-1.63107 -2.73748,-3.02912 3.02913,2.73748 c 1.66602,1.50561 3.02913,2.86872 3.02913,3.02912 0,0.72006 -0.76906,0.0861 -3.32078,-2.73748 z m 42.84387,-9.32039 -1.77552,-2.09708 2.09709,1.77552 c 1.97074,1.66856 2.52138,2.41865 1.77552,2.41865 -0.17686,0 -1.12055,-0.94369 -2.09709,-2.09709 z m -77.329302,-24.23301 -2.737483,-3.02912 3.029127,2.73748 c 2.823569,2.55172 3.457539,3.32077 2.737482,3.32077 -0.160403,0 -1.52351,-1.36311 -3.029126,-3.02913 z m 333.262522,0.87341 c 0,-0.16041 1.36311,-1.52351 3.02913,-3.02913 l 3.02912,-2.73748 -2.73748,3.02913 c -2.55172,2.82357 -3.32077,3.45753 -3.32077,2.73748 z m -47.53398,-4.83457 c 1.20396,-1.28155 2.39872,-2.3301 2.65503,-2.3301 0.25631,0 -0.51903,1.04855 -1.72299,2.3301 -1.20396,1.28155 -2.39873,2.3301 -2.65504,2.3301 -0.25631,0 0.51904,-1.04855 1.723,-2.3301 z m -239.1266,-1.63107 -2.73748,-3.02913 3.02912,2.73749 c 2.82358,2.55171 3.45754,3.32077 2.73749,3.32077 -0.16041,0 -1.52351,-1.36311 -3.02913,-3.02913 z m -80.15534,-27.02913 -2.737483,-3.02912 3.029126,2.73748 c 2.82357,2.55172 3.45754,3.32077 2.737483,3.32077 -0.160404,0 -1.523511,-1.36311 -3.029126,-3.02913 z m 350.97126,-2.09708 c 1.20396,-1.28156 2.39872,-2.3301 2.65503,-2.3301 0.25631,0 -0.51903,1.04854 -1.72299,2.3301 -1.20396,1.28155 -2.39872,2.33009 -2.65504,2.33009 -0.25631,0 0.51904,-1.04854 1.723,-2.33009 z m -302.50524,-1.63107 -2.737483,-3.02913 3.029126,2.73748 c 2.82357,2.55172 3.45754,3.32078 2.737483,3.32078 -0.160404,0 -1.523511,-1.36311 -3.029126,-3.02913 z m 355.63145,0.8734 c 0,-0.1604 1.36311,-1.52351 3.02913,-3.02912 l 3.02913,-2.73748 -2.73749,3.02912 c -2.55171,2.82358 -3.32077,3.45754 -3.32077,2.73748 z"
       id="path61"
       inkscape:connector-curvature="0" />
    <path
       d="m 377.47573,290.3301 c 2.78439,-2.81942 5.27225,-5.12621 5.52856,-5.12621 0.25631,0 -1.81213,2.30679 -4.59652,5.12621 -2.78439,2.81942 -5.27224,5.12621 -5.52855,5.12621 -0.25631,0 1.81212,-2.30679 4.59651,-5.12621 z m -279.180667,-0.69903 -4.625159,-4.8932 4.893204,4.62516 c 4.546852,4.29778 5.320642,5.16125 4.625162,5.16125 -0.14743,0 -2.34937,-2.20195 -4.893207,-4.89321 z M 350.40766,266.3301 c 3.86233,-4.11513 4.69914,-4.85507 4.69914,-4.15522 0,0.14958 -1.99223,2.14181 -4.42718,4.42718 l -4.42719,4.15523 z m -225.51445,-1.16505 c -2.26395,-2.30679 -3.90657,-4.19417 -3.65026,-4.19417 0.25631,0 2.31834,1.88738 4.58229,4.19417 2.26395,2.3068 3.90657,4.19418 3.65026,4.19418 -0.25631,0 -2.31834,-1.88738 -4.58229,-4.19418 z M 64.31068,256.7767 c -2.263949,-2.30679 -3.906562,-4.19417 -3.650251,-4.19417 0.25631,0 2.318341,1.88738 4.58229,4.19417 2.26395,2.3068 3.906563,4.19418 3.650252,4.19418 -0.25631,0 -2.318341,-1.88738 -4.582291,-4.19418 z m 350.44661,-2.79611 c 2.78439,-2.81942 5.27224,-5.12622 5.52855,-5.12622 0.25631,0 -1.81212,2.3068 -4.59651,5.12622 -2.7844,2.81941 -5.27225,5.12621 -5.52856,5.12621 -0.25631,0 1.81213,-2.3068 4.59652,-5.12621 z m -32.66031,-18.40777 c 2.28537,-2.43495 4.2776,-4.42719 4.42718,-4.42719 0.69985,0 -0.0401,0.83682 -4.15522,4.69915 L 377.94175,240 Z M 93.203885,234.40777 c -2.26395,-2.3068 -3.906563,-4.19417 -3.650252,-4.19417 0.256311,0 2.318341,1.88737 4.582291,4.19417 2.26395,2.3068 3.906566,4.19417 3.650255,4.19417 -0.25631,0 -2.318344,-1.88737 -4.582294,-4.19417 z m -62.94766,-10.95146 -4.625157,-4.8932 4.893204,4.62516 c 2.691262,2.54383 4.893204,4.74577 4.893204,4.8932 0,0.69548 -0.863472,-0.0783 -5.161251,-4.62516 z m 421.782615,-5.82524 c 2.78439,-2.81942 5.27225,-5.12621 5.52856,-5.12621 0.25631,0 -1.81213,2.30679 -4.59652,5.12621 -2.78439,2.81942 -5.27225,5.12621 -5.52856,5.12621 -0.25631,0 1.81213,-2.30679 4.59652,-5.12621 z m -40.54369,-10.71845 c 0.92784,-1.02524 1.89668,-1.86407 2.15299,-1.86407 0.25631,0 -0.29311,0.83883 -1.22095,1.86407 -0.92784,1.02525 -1.89668,1.86408 -2.15299,1.86408 -0.25631,0 0.29312,-0.83883 1.22095,-1.86408 z M 64.191794,206.2136 c -1.159336,-1.47827 -1.12637,-1.51124 0.351896,-0.35191 0.897088,0.70355 1.631068,1.43753 1.631068,1.63107 0,0.76711 -0.765377,0.27338 -1.982964,-1.27916 z M 228.34952,16.424803 c 0,-0.193543 0.73398,-0.927524 1.63107,-1.631068 1.47827,-1.159336 1.51123,-1.12637 0.3519,0.351896 -1.21759,1.552542 -1.98297,2.046272 -1.98297,1.279172 z m 18.52188,-1.279172 c -1.15933,-1.478266 -1.12637,-1.511232 0.3519,-0.351896 1.55255,1.217587 2.04628,1.982964 1.27917,1.982964 -0.19354,0 -0.92752,-0.73398 -1.63107,-1.631068 z"
       id="path59"
       inkscape:connector-curvature="0" />
    <path
       d="m 93.405569,464.61671 c -3.427117,-1.48908 -6.670905,-7.36461 -6.705487,-12.14579 -0.01126,-1.55654 5.639012,-35.73906 12.556155,-75.96117 6.917143,-40.22211 12.579283,-73.36066 12.582523,-73.64123 0.003,-0.28056 -23.942918,-23.76794 -53.213699,-52.19417 C 27.60859,220.5528 4.4192829,197.31028 3.0416528,194.96338 0.31175917,190.31281 -0.05030615,184.7837 2.1546836,181.41846 c 3.3596108,-5.12741 5.6367622,-5.58832 83.5918534,-16.91932 40.731093,-5.92038 74.327593,-11.06729 74.658883,-11.43756 0.33131,-0.37028 15.16476,-30.24216 32.96324,-66.381967 17.79849,-36.139806 33.50159,-67.1767 34.89579,-68.970875 1.3942,-1.794175 4.12175,-4.050231 6.06122,-5.013458 4.74908,-2.358604 9.5859,-0.968155 13.70681,3.940325 1.62963,1.941072 17.75314,33.476951 35.83003,70.079732 18.07689,36.602783 33.21845,66.665193 33.64791,66.805353 0.42947,0.14016 33.87751,5.07586 74.32898,10.96824 77.52875,11.29322 79.82254,11.75991 83.2098,16.92953 1.92861,2.94343 1.88049,8.46994 -0.10721,12.31375 -2.06211,3.98767 -6.35745,8.32772 -54.59247,55.16074 -22.29903,21.65089 -43.81609,42.58273 -47.81569,46.51521 l -7.27199,7.14996 12.69835,73.95615 c 10.0646,58.61704 12.56852,74.9001 12.0724,78.50728 -1.16951,8.50343 -7.05248,12.30093 -15.52283,10.0201 -2.1591,-0.58139 -33.36854,-16.53709 -69.35429,-35.45713 -35.98577,-18.92002 -65.92135,-34.40005 -66.52351,-34.40005 -0.60218,0 -30.52905,15.47266 -66.50418,34.38368 -35.97514,18.91102 -67.087,34.84655 -69.13749,35.41227 -4.735827,1.30663 -5.836546,1.26486 -9.584721,-0.36371 z m 97.603591,-85.6508 c 25.85504,-13.63513 47.27158,-24.79115 47.59231,-24.79115 0.32072,0 24.67341,12.72172 54.11706,28.27049 29.50293,15.58008 53.6536,27.79411 53.80056,27.20926 0.21018,-0.83645 -18.35672,-111.87406 -19.74676,-118.09364 -0.23647,-1.05806 8.30029,-9.95146 26.34183,-27.44232 44.6565,-43.29345 60.84206,-59.24971 60.47426,-59.61751 -0.19318,-0.19318 -26.11795,-4.12244 -57.6106,-8.73169 -31.49265,-4.60924 -58.55779,-8.60807 -60.14475,-8.88628 -2.7888,-0.4889 -3.78603,-2.33023 -29.79523,-55.01484 -14.80041,-29.97995 -27.14657,-54.509006 -27.4359,-54.509006 -0.28932,0 -12.62869,24.515316 -27.42083,54.478486 -24.06922,48.75498 -27.15054,54.52982 -29.3292,54.96726 -1.33894,0.26883 -28.41324,4.28378 -60.16511,8.92211 -31.751886,4.63833 -57.877638,8.58027 -58.057238,8.75987 -0.355117,0.35511 17.689653,18.15015 59.995778,59.16545 18.46919,17.90566 27.04572,26.83351 26.80429,27.90223 -0.19528,0.86438 -4.75776,27.15605 -10.13884,58.42596 -5.38109,31.2699 -10.00884,57.80801 -10.28391,58.97358 -0.61524,2.60711 -3.41655,3.98422 61.00228,-29.98826 z"
       id="path57"
       inkscape:connector-curvature="0" />
  </g>
</svg>
