<?xml version="1.0" encoding="UTF-8" standalone="no"?>
<!-- Created with Inkscape (http://www.inkscape.org/) -->

<svg
   xmlns:dc="http://purl.org/dc/elements/1.1/"
   xmlns:cc="http://creativecommons.org/ns#"
   xmlns:rdf="http://www.w3.org/1999/02/22-rdf-syntax-ns#"
   xmlns:svg="http://www.w3.org/2000/svg"
   xmlns="http://www.w3.org/2000/svg"
   xmlns:sodipodi="http://sodipodi.sourceforge.net/DTD/sodipodi-0.dtd"
   xmlns:inkscape="http://www.inkscape.org/namespaces/inkscape"
   version="1.1"
   id="svg45"
   width="41.274948"
   height="19.11828"
   viewBox="0 0 41.274948 19.118281"
   sodipodi:docname="menu-arrow.svg"
   inkscape:version="0.92.4 (unknown)">
  <path
     style="fill:#e65c21"
     d="M 20.85472,18.737209 C 20.706093,18.349893 20.574106,18.299126 20.409251,18.565867 20.253438,18.817978 16.812388,16.397463 10.133784,11.337861 4.6111218,7.1539814 0.0529618,3.7038651 0.0045378,3.6709348 c -0.08903,-0.060544 1.159224,-3.08830316 1.353172,-3.28225171 0.0577,-0.0577013 4.384635,3.14334801 9.6154092,7.11344301 5.230773,3.9700949 9.62024,7.2183549 9.754372,7.2183549 0.134131,0 4.53792,-3.312108 9.786198,-7.3602407 L 40.056008,0 40.77244,1.6802399 c 0.5473,1.2835836 0.627159,1.7637397 0.338282,2.0339461 -0.207978,0.1945383 -4.554144,3.5637682 -9.658143,7.487177 -5.103999,3.923409 -9.528997,7.347843 -9.833327,7.609852 -0.493462,0.42484 -0.57618,0.416833 -0.764532,-0.07401 z"
     id="path74"
     inkscape:connector-curvature="0" />
</svg>
