<?xml version="1.0" encoding="UTF-8" standalone="no"?>
<!-- Created with Inkscape (http://www.inkscape.org/) -->

<svg
   xmlns:dc="http://purl.org/dc/elements/1.1/"
   xmlns:cc="http://creativecommons.org/ns#"
   xmlns:rdf="http://www.w3.org/1999/02/22-rdf-syntax-ns#"
   xmlns:svg="http://www.w3.org/2000/svg"
   xmlns="http://www.w3.org/2000/svg"
   xmlns:sodipodi="http://sodipodi.sourceforge.net/DTD/sodipodi-0.dtd"
   xmlns:inkscape="http://www.inkscape.org/namespaces/inkscape"
   version="1.1"
   id="svg64"
   width="511.25583"
   height="511.50974"
   viewBox="0 0 511.25583 511.50974"
   sodipodi:docname="phone-icon.svg"
   inkscape:version="0.92.4 (unknown)">
  <path
     d="M 373.39147,511.20284 C 357.70553,509.2459 341.42146,504.55088 308.9907,492.63483 274.57749,479.99036 268.09083,477.28763 250.05604,468.07913 176.2386,430.3882 80.846035,335.00862 43.170465,261.22173 33.931135,243.12667 31.236105,236.65992 18.585275,202.22939 2.7385549,159.10092 0.11802487,148.18553 0.00313487,124.82862 c -0.121,-24.60056 3.23326003,-38.729389 14.85138013,-62.557024 7.83733,-16.073605 16.75352,-29.559439 25.93101,-39.220953 8.65287,-9.109218 17.78539,-13.8217837 35.10595,-18.1153851 22.12158,-5.48372553 35.377795,-6.3824015 40.888095,-2.7719173 3.35204,2.1963432 9.47843,11.9878984 23.25361,37.1652794 18.83994,34.434408 26.33329,47.438019 33.63226,58.363854 12.05007,18.037776 13.82839,24.161796 9.57038,32.957686 -3.01907,6.23655 -16.77916,19.81154 -33.84435,33.38904 -23.08989,18.37092 -30.88073,27.90597 -29.35551,35.92765 1.11518,5.86517 5.83917,15.17972 18.28658,36.05663 20.03624,33.60498 36.27564,54.99834 59.06893,77.81583 22.56946,22.59343 45.08314,39.6257 78.99306,59.76063 20.29027,12.04789 29.11072,16.48874 34.96347,17.60315 8.07101,1.53677 18.19774,-6.95323 37.61394,-31.53458 12.05049,-15.25619 25.453,-28.71841 31.49525,-31.63558 9.02317,-4.35634 14.86091,-2.62019 34.10965,10.14423 6.22855,4.13034 26.39964,15.82756 44.82464,25.99383 53.36387,29.44431 52.52096,28.73173 51.64227,43.65763 -0.88324,15.00309 -6.25955,36.51212 -12.1499,48.60818 -9.85394,20.23541 -52.33123,46.16041 -86.7402,52.93981 -8.04196,1.58447 -31.73884,2.7012 -38.75218,1.82623 z"
     id="path74"
     inkscape:connector-curvature="0" />
</svg>
