<?xml version="1.0" encoding="UTF-8" standalone="no"?>
<!-- Created with Inkscape (http://www.inkscape.org/) -->

<svg
   xmlns:dc="http://purl.org/dc/elements/1.1/"
   xmlns:cc="http://creativecommons.org/ns#"
   xmlns:rdf="http://www.w3.org/1999/02/22-rdf-syntax-ns#"
   xmlns:svg="http://www.w3.org/2000/svg"
   xmlns="http://www.w3.org/2000/svg"
   xmlns:sodipodi="http://sodipodi.sourceforge.net/DTD/sodipodi-0.dtd"
   xmlns:inkscape="http://www.inkscape.org/namespaces/inkscape"
   version="1.1"
   id="svg3833"
   width="31.241528"
   height="67.063187"
   viewBox="0 0 31.241528 67.063187"
   sodipodi:docname="slider-arrow.svg"
   inkscape:version="0.92.4 (unknown)">
  <path
     style="fill:#e65c21;stroke-width:0.31999999"
     d="M 13.042861,50.900739 C 5.9686453,42.011396 0.10823132,34.549569 0.01971832,34.31891 c -0.09235,-0.240666 0.147157,-0.517168 0.562031,-0.648845 C 1.2665313,33.452724 1.2740613,33.418193 0.72432032,33.016212 0.08540532,32.549025 -1.4703027,34.643934 17.968173,9.7957389 L 25.631274,0 28.200196,1.0995443 c 1.412907,0.6047494 2.621751,1.1523733 2.686319,1.2169419 0.06457,0.064569 -5.295841,7.0301987 -11.912023,15.4791768 -6.616182,8.448979 -12.0294207,15.528383 -12.0294207,15.732008 0,0.203626 5.3482447,7.089587 11.8849877,15.302131 6.536744,8.212547 12.029264,15.115382 12.205601,15.339638 0.418571,0.53231 0.468414,0.497276 -2.538565,1.784316 l -2.592023,1.109434 z"
     id="path3843"
     inkscape:connector-curvature="0" />
</svg>
