<?xml version="1.0" encoding="UTF-8" standalone="no"?>
<!-- Created with Inkscape (http://www.inkscape.org/) -->

<svg
   xmlns:dc="http://purl.org/dc/elements/1.1/"
   xmlns:cc="http://creativecommons.org/ns#"
   xmlns:rdf="http://www.w3.org/1999/02/22-rdf-syntax-ns#"
   xmlns:svg="http://www.w3.org/2000/svg"
   xmlns="http://www.w3.org/2000/svg"
   xmlns:sodipodi="http://sodipodi.sourceforge.net/DTD/sodipodi-0.dtd"
   xmlns:inkscape="http://www.inkscape.org/namespaces/inkscape"
   version="1.1"
   id="svg71"
   width="811.50708"
   height="462.2735"
   viewBox="0 0 811.50708 462.2735"
   sodipodi:docname="soc-icon-3.svg"
   inkscape:version="0.92.4 (unknown)">
  <path

     d="m 382.58833,461.97372 c -3.60057,-0.23226 -6.81024,-0.61124 -10.76179,-1.27069 -0.968,-0.16154 -2.768,-0.37863 -4,-0.48243 -1.232,-0.10378 -3.824,-0.54692 -5.76,-0.98471 -1.936,-0.43782 -4.744,-1.0744 -6.24,-1.41462 -1.496,-0.34023 -4.088,-0.77162 -5.76,-0.95866 -3.60665,-0.40349 -7.71769,-1.22717 -8.144,-1.63174 -0.1672,-0.15869 -0.62669,-0.28851 -1.02112,-0.28851 -0.3944,0 -0.79411,-0.12458 -0.88819,-0.27684 -0.0941,-0.15222 -0.71459,-0.36137 -1.37888,-0.46473 -2.8321,-0.44071 -5.68819,-1.20842 -7.23216,-1.94397 -0.91062,-0.43382 -2.51965,-0.95574 -3.57565,-1.15981 -4.29129,-0.82928 -5.19465,-1.07942 -6.88,-1.90499 -0.968,-0.47418 -2.624,-1.04749 -3.68,-1.27402 -1.056,-0.22652 -2.71517,-0.82422 -3.68701,-1.32822 -0.97184,-0.50397 -2.48384,-1.05728 -3.36,-1.22957 -2.41276,-0.47453 -3.47987,-0.83955 -5.00342,-1.71152 -0.76426,-0.43744 -1.96557,-0.97248 -2.66957,-1.18902 -0.704,-0.21651 -2.5903,-1.02451 -4.19174,-1.79549 -1.60147,-0.77101 -3.07255,-1.40182 -3.26903,-1.40182 -0.19648,0 -1.6326,-0.648 -3.19139,-1.44 -1.55878,-0.792 -2.99936,-1.44 -3.20125,-1.44 -0.20192,0 -0.91152,-0.31018 -1.57686,-0.68928 -1.94624,-1.1089 -3.32733,-1.76656 -5.29517,-2.52151 -1.01501,-0.38937 -1.91392,-0.81872 -1.99757,-0.95408 -0.0836,-0.13536 -2.34918,-1.35328 -5.03452,-2.70646 -2.68538,-1.35322 -5.24247,-2.78579 -5.68247,-3.18349 -0.44,-0.39773 -1.52,-1.04877 -2.4,-1.44678 -0.88,-0.39802 -1.82717,-0.92484 -2.10483,-1.17072 -0.27766,-0.24586 -1.33095,-0.78314 -2.34065,-1.19392 -1.00969,-0.41079 -2.12465,-0.99421 -2.47768,-1.29648 -0.35303,-0.30228 -2.32374,-1.62868 -4.37935,-2.94759 -2.05562,-1.31888 -4.04343,-2.66297 -4.41736,-2.98685 -0.37393,-0.32387 -1.35866,-1.0015 -2.18828,-1.50585 -0.82962,-0.50435 -1.89168,-1.16493 -2.36012,-1.46797 -0.46845,-0.30304 -1.42773,-0.8583 -2.13173,-1.23392 -0.704,-0.37565 -1.784,-1.15347 -2.4,-1.72854 -0.616,-0.57508 -2.344,-1.87325 -3.84,-2.88484 -1.496,-1.01158 -3.23753,-2.28982 -3.87008,-2.84048 -0.63254,-0.55068 -2.36054,-1.90377 -3.84,-3.00684 -4.00515,-2.98621 -7.50597,-5.83882 -10.69457,-8.71441 -1.07337,-0.968 -3.09543,-2.74851 -4.49346,-3.9567 -2.59591,-2.24342 -10.45762,-9.56451 -12.7759,-11.89738 -2.21824,-2.23219 -13.07232,-13.64729 -15.06389,-15.84252 -1.04615,-1.15312 -3.00564,-3.31312 -4.35441,-4.8 -1.34878,-1.48685 -3.31242,-3.8554 -4.36367,-5.2634 -1.05124,-1.408 -3.00138,-3.784 -4.33364,-5.28 -2.4441,-2.74448 -8.00802,-9.49321 -10.19412,-12.36496 -0.6511,-0.85526 -1.6933,-2.20304 -2.3161,-2.99504 -0.6227,-0.792 -2.034,-2.64819 -3.1362,-4.12489 -1.1022,-1.47667 -3.1074,-4.08752 -4.456,-5.80189 -1.3487,-1.71434 -2.6685,-3.53015 -2.9329,-4.03511 -0.2644,-0.50496 -0.751,-1.20611 -1.0812,-1.55811 -0.3302,-0.352 -1.8567,-2.44 -3.3921,-4.64 -1.5354,-2.2 -3.3672,-4.72 -4.0706,-5.6 -0.7035,-0.88 -1.8129,-2.392 -2.4655,-3.36 -0.6525,-0.968 -1.6228,-2.28064 -2.156,-2.91699 -0.9716,-1.15926 -7.1158,-10.33891 -9.0273,-13.48704 -0.5597,-0.92179 -1.7117,-2.65443 -2.56,-3.85034 -0.8483,-1.19593 -1.6144,-2.34793 -1.7024,-2.56 -0.3002,-0.72355 -3.4426,-5.2031 -3.939,-5.615 -0.2722,-0.22589 -0.8854,-1.1577 -1.3627,-2.07069 -0.4774,-0.91296 -1.1844,-2.09194 -1.5711,-2.61994 -0.3867,-0.528 -0.946,-1.49309 -1.2429,-2.14461 -0.2968,-0.65155 -0.9268,-1.64464 -1.3999,-2.20688 -0.473,-0.56224 -1.4922,-2.11715 -2.2647,-3.45539 -0.7726,-1.33821 -1.6954,-2.93712 -2.0507,-3.55312 -0.3554,-0.616 -1.038,-1.696 -1.517,-2.4 -1.9268,-2.83206 -2.7629,-4.13833 -3.4026,-5.31638 -0.3688,-0.67923 -1.2498,-2.06493 -1.9578,-3.0793 -0.708,-1.01437 -1.3888,-2.1712 -1.513,-2.57072 -0.1242,-0.39952 -0.7365,-1.39555 -1.3608,-2.21338 -0.6243,-0.81785 -1.333403,-1.96166 -1.575803,-2.54185 -0.2424,-0.58019 -1.017,-1.9465 -1.7213,-3.03623 -0.7044,-1.08976 -1.2807,-2.09472 -1.2807,-2.23328 0,-0.38633 -2.5502,-4.44777 -3.7067,-5.90313 -0.9956,-1.25306 -2.1838,-3.31197 -4.6084,-7.98573 -2.0897,-4.02829 -3.6171,-6.70838 -4.1946,-7.36 -0.3119,-0.352 -0.8698,-1.34739 -1.2396,-2.212 -0.3699,-0.86461 -1.174,-2.25514 -1.7869,-3.09011 -0.6129,-0.83495 -1.4244,-2.28755 -1.8033,-3.228 -0.3789,-0.94045 -0.93,-1.99789 -1.2247,-2.34989 -0.2947,-0.352 -1.4055,-2.296 -2.4685,-4.32 -4.5929,-8.74573 -5.3558,-10.12819 -6.0618,-10.98467 -0.4101,-0.49757 -0.8414,-1.28957 -0.9584,-1.76 -0.2294,-0.92272 -1.3111,-2.9945 -1.6995,-3.25533 -0.3304,-0.22189 -1.2876,-2.12973 -1.2876,-2.56646 0,-0.19703 -0.4363,-0.99245 -0.9696,-1.76759 -0.5333,-0.77513 -1.3676,-2.24109 -1.8539,-3.25766 -0.4864,-1.01655 -1.274,-2.45744 -1.7504,-3.20192 -0.4763,-0.74452 -0.8661,-1.45952 -0.8661,-1.58893 0,-0.12941 -0.7035,-1.46426 -1.5635,-2.96637 -0.8599,-1.50209 -1.6716,-3.09107 -1.8038,-3.53107 -0.1322,-0.44 -0.6314,-1.376 -1.1094,-2.08 -0.4779,-0.704 -1.1892,-2.144 -1.5806,-3.2 -0.3913,-1.056 -1.0372,-2.352 -1.4352,-2.88 -0.3981,-0.528 -0.987,-1.65543 -1.3088,-2.50539 -0.3217,-0.84996 -1.012,-2.13485 -1.5339,-2.8553 -0.5219,-0.72045 -1.2957,-2.09422 -1.7197,-3.05283 -0.4239,-0.95861 -1.1166,-2.19633 -1.5393,-2.7505 -0.4227,-0.55416 -0.9543,-1.70201 -1.1813,-2.55078 -0.227,-0.84876 -0.8791,-2.08802 -1.449,-2.75392 -0.57,-0.66589 -1.2171,-1.91284 -1.4381,-2.771 -0.221,-0.85815 -0.787,-2.20828 -1.2578,-3.00028 -0.4708,-0.792 -1.0945,-2.16 -1.386,-3.04 -0.2916,-0.88 -0.9197,-2.104 -1.3958,-2.72 -0.9066,-1.17274 -1.3256,-1.97839 -1.9972,-3.84 -0.2223,-0.616 -0.652,-1.408 -0.9549,-1.76 -0.6903,-0.80215 -1.3791,-2.18478 -1.9129,-3.84 -0.227,-0.704 -0.7423,-1.784 -1.145,-2.4 -0.4028,-0.616 -0.9742,-1.84 -1.2698,-2.72 -0.2956,-0.88 -0.9248,-2.176 -1.3982,-2.88 -0.4733,-0.704 -1.1825,-2.144 -1.5758,-3.2 -0.3933,-1.056 -1.0419,-2.424 -1.4414,-3.04 -0.3994,-0.616 -1.1236,-2.12151 -1.6093,-3.34558 -0.4857,-1.22406 -1.133,-2.59206 -1.4385,-3.04 -0.3055,-0.44793 -0.7539,-1.46242 -0.9964,-2.25442 -0.2426,-0.792 -0.8479,-2.04556 -1.3452,-2.7857 -0.4973,-0.74013 -1.2434,-2.3481 -1.6579,-3.57326 -0.4145,-1.22516 -1.0292,-2.6356 -1.366,-3.1343 -0.6979,-1.03342 -1.1052,-1.8976 -1.8604,-3.94674 -0.2919,-0.792 -0.8654,-1.95287 -1.2744,-2.57972 -0.4091,-0.62684 -1.0026,-1.99484 -1.3191,-3.04 -0.3164,-1.04515 -0.813,-2.18828 -1.1035,-2.54028 -0.5022,-0.60846 -1.9119,-3.45813 -1.9119,-3.86488 0,-0.10551 -0.648,-1.54198 -1.4400004,-3.19214 -0.792,-1.65016 -1.44,-3.13011 -1.44,-3.28879 0,-0.28182 -1.8204,-4.28994 -4.0569,-8.93244 -0.6142,-1.27503 -1.3841,-3.36303 -1.7109,-4.64 -0.3268,-1.27696 -0.6867,-2.68175 -0.7999,-3.12175 -0.1131,-0.44 -0.3291,-1.088 -0.47989998,-1.44 -0.8822,-2.05864 -1.2346,-7.35848 -0.6552,-9.85409 0.3277,-1.41173 2.03719998,-4.36099 3.29619998,-5.68655 0.4803,-0.50574 1.4163,-1.21005 2.08,-1.56514 0.6636,-0.3551 1.7834,-1.07977 2.4884,-1.6104 0.8283,-0.62351 1.9602004,-1.08863 3.2000004,-1.31493 2.255,-0.41163 4.2231,-0.89751 5.1182,-1.26356 0.8104,-0.3314 2.1967,-0.57403 5.513,-0.96489 4.2165,-0.49696 121.653003,-0.24827 122.567003,0.25955 1.5207,0.84483 2.0118,1.04 2.6168,1.04 0.344,0 0.7145,0.144 0.8232,0.32 0.1088,0.176 0.5093,0.32 0.8899,0.32 1.2844,0 5.1786,1.39944 6.8548,2.46339 0.9155,0.58114 1.7884,1.05661 1.9396,1.05661 0.1513,0 0.5542,0.25674 0.8954,0.57054 0.3412,0.31379 1.3403,1.10729 2.2203,1.76334 1.9856,1.48027 5.31744,5.56263 6.45258,7.90613 0.46888,0.968 1.17541,2.12 1.57007,2.56 0.39466,0.44 1.01953,1.82522 1.3886,3.07827 0.36907,1.25305 0.93804,2.62105 1.26437,3.04 0.32632,0.41895 0.77549,1.33773 0.99815,2.04173 0.22266,0.704 0.53116,1.53004 0.68556,1.83565 0.15439,0.30562 0.28072,0.70925 0.28072,0.89698 0,0.18773 0.36379,0.87368 0.80843,1.52434 0.44465,0.65066 1.09502,2.10589 1.44529,3.23384 0.35026,1.12794 1.04436,2.85594 1.54244,3.84 0.49808,0.98405 1.16005,2.58119 1.47104,3.54919 0.311,0.968 1.1251,3.02019 1.80912,4.56043 0.68402,1.54024 1.24367,2.97159 1.24367,3.18077 0,0.20918 0.56787,1.32498 1.26192,2.47956 0.69405,1.15458 1.49261,2.78574 1.77457,3.62479 0.28197,0.83905 0.92001,2.13505 1.41787,2.88 0.49786,0.74495 1.00976,1.71445 1.13756,2.15445 0.1278,0.44 0.73077,1.72109 1.33993,2.84687 0.60917,1.12579 1.32196,2.70979 1.58398,3.52 0.57791,1.78697 1.08707,2.91348 1.60595,3.55313 0.21416,0.264 0.68729,1.272 1.05141,2.24 0.36411,0.968 1.09449,2.408 1.62305,3.2 0.52856,0.792 0.96164,1.62156 0.96239,1.84348 0.002,0.50529 1.21508,3.17024 1.92891,4.23652 0.29456,0.44 0.92996,1.844 1.41199,3.12 0.48203,1.276 0.97679,2.32 1.09946,2.32 0.34529,0 1.2346,1.64309 1.81572,3.35475 0.28916,0.85171 1.01615,2.26147 1.61552,3.13281 0.59938,0.87134 1.08977,1.76962 1.08977,1.99619 0,0.22656 0.49906,1.15353 1.10902,2.05992 1.17604,1.74759 2.48054,4.11091 5.82741,10.55733 1.13678,2.18955 2.31497,4.34955 2.61821,4.8 0.30324,0.45045 0.96468,1.611 1.46987,2.579 0.5052,0.968 1.30819,2.264 1.78443,2.88 0.47624,0.616 1.18951,1.768 1.58503,2.56 0.39553,0.792 1.03339,1.872 1.41748,2.4 1.1661,1.60301 3.83445,6.00482 4.4124,7.27887 0.29912,0.65937 0.95152,1.81137 1.44979,2.56 0.49826,0.74862 1.11066,1.79313 1.36087,2.32113 0.25022,0.528 0.76828,1.32 1.15124,1.76 0.38297,0.44 1.16378,1.664 1.73515,2.72 0.57137,1.056 1.29207,2.208 1.60155,2.56 0.30948,0.352 0.81275,1.144 1.11838,1.76 0.30562,0.616 0.97349,1.696 1.48415,2.4 1.43012,1.97158 6.08081,9.0825 7.15502,10.94003 1.00125,1.73139 6.29229,9.37866 7.27339,10.51245 0.31053,0.35885 1.03306,1.39136 1.60561,2.29446 1.38265,2.1809 4.83235,6.76055 6.71481,8.91424 0.8326,0.95255 1.86269,2.27348 2.28909,2.93536 0.42641,0.66189 1.9052,2.45773 3.28619,3.99072 1.38101,1.533 4.00938,4.449 5.8408,6.48 1.83146,2.03101 3.43328,3.69274 3.55962,3.69274 0.12636,0 1.09302,0.77027 2.14812,1.71174 1.05514,0.94148 3.19732,2.54996 4.76039,3.57444 1.5631,1.02444 3.20198,2.17449 3.64198,2.55561 0.44,0.38115 1.52,0.95373 2.4,1.27242 0.88,0.31869 2.176,0.8319 2.88,1.14045 1.87351,0.82112 4.03386,1.26556 6.1417,1.26355 2.624,-0.003 3.79325,-0.34659 8.27091,-2.43379 1.48995,-0.69453 5.08259,-4.55402 6.07328,-6.52442 0.48669,-0.968 1.21123,-2.192 1.61008,-2.72 0.39885,-0.528 1.02102,-1.86742 1.38266,-2.97648 0.36163,-1.10906 1.08956,-2.90906 1.61769,-4 0.60397,-1.24768 1.15677,-3.17066 1.49015,-5.18352 0.29145,-1.76 0.78726,-3.992 1.10179,-4.96 0.76086,-2.34182 1.17373,-4.89453 1.7855,-11.04 0.28032,-2.816 0.58483,-5.2424 0.67664,-5.392 0.30983,-0.50483 0.77002,-4.18762 0.9257,-7.408 0.0851,-1.76 0.26867,-3.56 0.40797,-4 0.13929,-0.44 0.31235,-3.248 0.3846,-6.24 0.21639,-8.9637 0.0802,-54.80427 -0.17257,-58.08 -0.12903,-1.672 -0.30067,-5.776 -0.38144,-9.12 -0.0808,-3.344 -0.27549,-6.44 -0.43267,-6.88 -0.5161,-1.4448 -0.92304,-4.23693 -1.44583,-9.92 -0.46416,-5.04575 -0.79581,-6.98841 -1.80291,-10.56 -0.41405,-1.46848 -0.76918,-2.97107 -1.19904,-5.07342 -0.19267,-0.94237 -0.90646,-2.95837 -1.58621,-4.48 -0.67971,-1.52162 -1.32294,-3.12658 -1.42937,-3.56658 -0.10644,-0.44 -0.77517,-1.69382 -1.48608,-2.78625 -0.71088,-1.09244 -1.29255,-2.06832 -1.29255,-2.16862 0,-0.49364 -4.01913,-5.35471 -5.82493,-7.04513 -3.41852,-3.20014 -8.42332,-6.62456 -10.52576,-7.20205 -0.63286,-0.17383 -1.71286,-0.71767 -2.4,-1.20851 -1.184,-0.84581 -1.84771,-1.09875 -5.24931,-2.00052 -0.792,-0.20996 -2.016,-0.63632 -2.72,-0.94746 -2.27222,-1.00423 -3.15625,-1.23024 -5.6,-1.4317 -3.64285,-0.30033 -4.38509,-0.48842 -5.31005,-1.34563 -0.74131,-0.68703 -0.82704,-0.9624 -0.66579,-2.1388 0.34711,-2.53223 1.82656,-5.09958 4.77559,-8.28711 3.44489,-3.72351 9.06656,-7.96832 13.04025,-9.84645 1.144,-0.54069 2.584,-1.23752 3.2,-1.5484997 1.04976,-0.52996 2.18682,-0.89886 5.28,-1.71297 0.704,-0.18529 2.21053,-0.76851 3.34784,-1.29604 1.42631,-0.66157 3.11402,-1.10308 5.44,-1.42311 1.85469,-0.25518 4.19562,-0.74008 5.20208,-1.07756 1.00643,-0.33748 2.25792,-0.6136 2.78109,-0.6136 0.52317,0 1.03082,-0.12879 1.1281,-0.28619 0.27094,-0.43837 2.243,-0.65602 14.74089,-1.62695 2.112,-0.16408 5.28,-0.44964 7.04,-0.63458 10.66915,-1.12110005 47.78512,-1.59091005 63.52,-0.80401005 5.896,0.29485 12.16,0.65652005 13.92,0.80370005 1.76,0.14718 4.496,0.35047 6.08,0.45175 1.584,0.10127 3.6,0.32113 4.48,0.48857 0.88,0.16744 2.608,0.3865 3.84,0.4868 1.232,0.10029 2.96,0.30784 3.84,0.46121 0.88,0.15337 2.176,0.37828 2.88,0.49981 0.704,0.12153 1.712,0.40803 2.24,0.63668 1.26509,0.54782 2.19088,0.72661 6.456,1.24678 3.20003,0.39026 4.87824,0.88756 7.21965,2.13936 0.30563,0.16339 0.74982,0.29707 0.98717,0.29707 0.78803,0 4.46095,1.31807 4.90204,1.75914 0.23869,0.23871 1.34506,0.8644697 2.45856,1.3905697 1.11351,0.52611 2.64263,1.50865 3.39805,2.18343 1.31539,1.17496 4.0769,4.6419 5.31034,6.66686 0.32163,0.528 0.93596,1.34609 1.36524,1.81797 0.47476,0.52189 1.00372,1.77535 1.3504,3.2 0.31348,1.28812 0.9264,3.13427 1.36205,4.10254 0.94464,2.09949 1.37354,4.13025 1.82477,8.6395 0.1849,1.848 0.49437,4.872 0.68771,6.72 0.38512,3.68147 0.19741,25.85992 -0.33181,39.2 -0.16755,4.224 -0.46979,16.824 -0.67161,28 -0.20186,11.176 -0.50967,26.512 -0.68403,34.08 -0.38957,16.90686 -0.49741,37.68979 -0.20343,39.2 0.11991,0.616 0.38307,3.496 0.5848,6.4 0.42864,6.17072 1.36557,11.75712 2.2688,13.52762 0.35117,0.68832 0.77018,2.06067 0.93114,3.04963 0.16576,1.01856 0.71174,2.47232 1.25936,3.35325 0.53168,0.85529 1.20806,2.29296 1.50301,3.19478 0.29497,0.90179 0.98249,2.15155 1.5278,2.77718 0.54532,0.62564 1.20356,1.556 1.46276,2.06746 0.25916,0.51146 1.24396,1.59146 2.18841,2.4 0.94445,0.80854 2.31975,2.06144 3.05623,2.78422 0.73648,0.72279 1.83574,1.46096 2.44281,1.64039 0.60707,0.17945 1.68704,0.50163 2.39987,0.716 2.60788,0.78419 8.45693,-0.18672 11.19501,-1.85827 4.05117,-2.47316 4.88432,-3.02448 6.25584,-4.13959 9.29639,-7.55837 18.28368,-17.0255 25.97306,-27.35977 1.012,-1.3601 2.668,-3.58711 3.68,-4.9489 1.012,-1.36179 2.82806,-3.70179 4.03571,-5.2 1.20762,-1.49821 2.51709,-3.372 2.90992,-4.164 0.3928,-0.792 2.04029,-3.384 3.66109,-5.76 4.13267,-6.05824 7.54038,-11.21781 8.03132,-12.16 0.22928,-0.44 0.7634,-1.232 1.18692,-1.76 0.42355,-0.528 1.5902,-2.25903 2.59257,-3.84672 2.47488,-3.92011 2.43667,-3.85815 3.94147,-6.39328 0.7313,-1.232 1.58058,-2.60704 1.8873,-3.05564 0.30672,-0.4486 0.95424,-1.6006 1.43891,-2.56 0.48464,-0.9594 1.15399,-2.09316 1.48739,-2.51947 0.33341,-0.42631 0.86612,-1.36231 1.18381,-2.08 0.3177,-0.71769 1.17747,-1.99765 1.91059,-2.84435 0.73316,-0.84671 1.333,-1.71521 1.333,-1.93002 0,-0.2148 0.51494,-1.21381 1.14435,-2.22002 1.21913,-1.94908 2.48493,-4.25698 4.60185,-8.3905 0.72109,-1.408 1.94906,-3.712 2.7288,-5.12 0.77978,-1.408 1.94708,-3.64 2.59399,-4.96 0.64691,-1.32 1.27056,-2.472 1.38582,-2.56 0.36586,-0.27929 4.38749,-8.42556 4.81827,-9.76 0.2273,-0.704 0.76525,-1.88819 1.19552,-2.63153 0.43024,-0.74334 1.1362,-2.32734 1.5688,-3.52 0.43258,-1.19266 1.133,-2.67247 1.55652,-3.28847 0.42352,-0.616 1.05401,-1.78766 1.40112,-2.60369 0.3471,-0.81603 1.00505,-2.07609 1.46211,-2.80014 0.45709,-0.72405 1.03801,-2.11104 1.29097,-3.08219 0.25296,-0.97115 0.97111,-2.59393 1.59591,-3.60617 0.62477,-1.01224 1.13597,-2.03368 1.13597,-2.26986 0,-0.23619 0.48646,-1.33012 1.08102,-2.43096 0.59456,-1.10084 1.39632,-2.84876 1.78166,-3.88426 0.38538,-1.03551 1.0352,-2.48477 1.4441,-3.22059 0.40886,-0.73582 1.05747,-2.31982 1.44134,-3.52 0.38384,-1.20018 1.11482,-2.92757 1.62439,-3.83865 0.50953,-0.91108 1.09309,-2.35108 1.29677,-3.2 0.20368,-0.84892 0.83148,-2.40749 1.39513,-3.46349 0.56365,-1.056 1.21043,-2.568 1.43731,-3.36 0.67799,-2.36682 1.06442,-3.31972 1.66708,-4.11095 0.31459,-0.41303 0.96185,-1.99703 1.4383,-3.52 0.47648,-1.52298 1.09926,-3.12905 1.38397,-3.56905 0.2847,-0.44 0.84947,-1.808 1.25504,-3.04 0.40557,-1.232 1.0471,-2.6 1.42566,-3.04 0.70154,-0.81549 1.24743,-1.69007 2.06346,-3.30595 0.25165,-0.49827 1.72185,-2.22627 3.26713,-3.84 2.10192,-2.19499 3.13933,-3.03481 4.1186,-3.33406 0.71993,-0.22 1.4568,-0.4 1.63747,-0.4 0.1807,0 0.93897,-0.27095 1.68505,-0.60212 1.83853,-0.81606 3.07578,-1.22929 4.3256,-1.4447 1.99325,-0.34353 143.15283,-0.1999 145.35091,0.14789 1.144,0.18101 2.656,0.40907 3.36,0.5068 0.704,0.0977 1.4168,0.30694 1.584,0.46491 0.1672,0.15797 0.69869,0.28722 1.18112,0.28722 0.4824,0 0.96611,0.144 1.07488,0.32 0.10877,0.176 0.82627,0.32 1.59447,0.32 1.99465,0 4.59808,0.64542 6.08553,1.50866 0.704,0.40857 2.00474,1.07852 2.89053,1.48877 2.2985,1.06454 5.80122,3.94685 6.23811,5.13318 0.42426,1.15203 1.16794,2.70401 2.07136,4.32269 0.54954,0.9846 0.63911,1.73479 0.6337,5.30671 -0.007,4.43135 -0.60861,7.95438 -1.76938,10.35687 -0.34336,0.71072 -0.62944,1.69517 -0.63571,2.18767 -0.0227,1.78475 -0.83645,4.55757 -2.23491,7.61546 -0.48291,1.056 -1.13383,2.712 -1.44647,3.68 -0.31264,0.968 -0.89769,2.264 -1.30012,2.88 -0.40244,0.616 -0.96314,1.80919 -1.24602,2.65154 -0.28288,0.84236 -1.01046,2.35436 -1.61686,3.36001 -0.60644,1.00564 -1.10295,1.93877 -1.1034,2.07361 0,0.21234 -0.82304,1.91055 -5.30467,10.95484 -1.24317,2.50877 -1.76941,3.40439 -3.70819,6.31093 -0.99661,1.49409 -2.26294,3.56535 -2.81405,4.60279 -1.60381,3.01917 -3.15155,5.55977 -4.0047,6.57369 -0.43552,0.51759 -1.07987,1.59212 -1.43184,2.38785 -0.352,0.79572 -1.21991,2.10558 -1.92867,2.9108 -0.7088,0.80523 -1.28871,1.59984 -1.28871,1.76583 0,0.16598 -1.08,1.87092 -2.4,3.78876 -1.32,1.91784 -2.4032,3.59777 -2.4071,3.73317 -0.004,0.1354 -0.29978,0.60618 -0.65747,1.04618 -0.3577,0.44 -1.44922,2.01586 -2.42564,3.50192 -0.97641,1.48606 -2.60182,3.79006 -3.61203,5.12 -1.01021,1.32994 -2.18345,3.00943 -2.60723,3.73221 -1.21178,2.06668 -3.99997,6.01914 -4.5937,6.5119 -0.29648,0.24604 -0.7528,0.86074 -1.01408,1.36599 -0.26128,0.50525 -1.22377,1.95403 -2.13891,3.21952 -1.95757,2.70706 -6.48765,8.81536 -7.05801,9.51699 -0.21847,0.26869 -1.03812,1.34869 -1.82151,2.4 -0.78336,1.05131 -2.044,2.68252 -2.80141,3.62491 -0.7574,0.9424 -1.74844,2.30168 -2.2023,3.02063 -0.45386,0.71895 -1.85894,2.6119 -3.1224,4.20657 -1.26346,1.59465 -2.74282,3.54736 -3.28746,4.33936 -0.54464,0.792 -1.25939,1.728 -1.58835,2.08 -0.85113,0.91078 -3.73488,4.71648 -6.28624,8.29606 -1.20112,1.68516 -2.29059,3.06394 -2.42108,3.06394 -0.13047,0 -0.58055,0.612 -1.00016,1.36 -0.41962,0.748 -1.3544,2.008 -2.07725,2.8 -0.72288,0.792 -1.98243,2.376 -2.79904,3.52 -0.81661,1.144 -1.88835,2.56765 -2.38167,3.16368 -0.49334,0.596 -1.25696,1.62851 -1.69696,2.29446 -0.81795,1.23799 -3.34524,4.5184 -5.90278,7.66186 -2.44915,3.01018 -7.74557,10.04208 -8.16227,10.8368 -0.21827,0.41626 -1.11031,1.64026 -1.98227,2.72 -0.87197,1.07978 -2.3185,3.0432 -3.21453,4.3632 -3.53959,5.21453 -4.53504,6.59328 -5.34919,7.40877 -0.46604,0.46681 -1.05385,1.25881 -1.30624,1.76 -0.25238,0.50118 -1.04022,1.73328 -1.75078,2.73798 -2.00416,2.83383 -3.62026,5.44221 -4.00403,6.46256 -0.19226,0.51111 -0.84071,1.73511 -1.44096,2.72 -0.60029,0.98487 -1.33127,2.43869 -1.62442,3.23069 -0.29315,0.792 -0.88921,2.19898 -1.32454,3.12659 -0.43533,0.92765 -1.16403,3.15965 -1.61936,4.96 -0.71696,2.83501 -0.82883,3.95911 -0.83546,8.39341 -0.009,6.23453 0.70871,9.62666 2.53331,11.96864 0.60999,0.78291 1.26368,2.01024 1.45268,2.72743 0.18902,0.71715 0.81641,2.02393 1.39424,2.90393 0.57782,0.88 1.32192,2.05472 1.6536,2.61053 0.78844,1.32125 10.58771,12.17485 14.68867,16.26909 1.7631,1.76019 4.92233,4.78438 7.02048,6.72038 5.18816,4.78717 9.59638,8.99648 11.17881,10.67434 0.72327,0.76691 2.63514,2.38806 4.24855,3.60256 1.61344,1.21453 3.91165,3.32307 5.1071,4.68566 2.40918,2.74599 5.12998,5.4265 6.83939,6.73808 1.10851,0.85056 3.04656,2.77383 14.24,14.13143 3.168,3.21446 6.0816,6.09811 6.47469,6.40809 0.89622,0.70676 4.29994,4.4746 8.56531,9.48164 1.68474,1.97766 3.52064,3.87228 5.12093,5.28464 1.19216,1.05216 4.95907,5.27193 4.95907,5.55526 0,0.29808 3.78653,4.8928 4.27725,5.19021 0.37997,0.23027 0.8992,0.88205 4.60614,5.78217 0.74986,0.99124 2.18228,2.72919 3.18314,3.86218 1.00086,1.13296 2.40336,2.92909 3.11661,3.99139 1.73821,2.58877 3.06166,4.43815 4.96093,6.93236 1.37516,1.80595 3.26758,4.78992 8.40131,13.24723 0.65193,1.07401 1.85446,3.28525 2.67222,4.91382 0.81779,1.62858 1.61255,3.03869 1.76608,3.13357 0.44439,0.27466 1.16336,2.064 1.67104,4.15872 0.2577,1.06336 0.7592,2.57536 1.11443,3.36 2.45479,5.42243 2.1906,12.23402 -0.69376,17.88707 -1.6671,3.26736 -5.69408,7.88221 -7.87539,9.02512 -0.792,0.41495 -2.03017,1.1592 -2.75155,1.65392 -0.72134,0.49469 -2.34688,1.16576 -3.61229,1.49123 -1.26541,0.32551 -2.61923,0.79223 -3.00845,1.03719 -0.38924,0.24493 -1.35571,0.63286 -2.14771,0.86208 -0.792,0.22918 -1.77078,0.54569 -2.17507,0.70336 -0.40426,0.15769 -1.15178,0.28669 -1.66109,0.28669 -0.50934,0 -1.01507,0.144 -1.12384,0.32 -0.10877,0.176 -0.52528,0.32 -0.92557,0.32 -0.40025,0 -0.82646,0.0987 -0.94707,0.21929 -0.12061,0.12064 -0.74032,0.39843 -1.37715,0.61738 -2.99738,1.03043 -10.05126,1.1303 -71.95021,1.01859 -57.54736,-0.10384 -61.56163,-0.14659 -63.36,-0.67482 -1.056,-0.31017 -2.208,-0.69753 -2.56,-0.86076 -0.352,-0.16327 -1.69673,-0.50727 -2.98832,-0.76445 -1.29155,-0.25722 -2.87555,-0.81075 -3.51999,-1.23005 -1.43536,-0.93398 -2.49677,-1.3505 -5.11498,-2.00726 -1.1128,-0.27914 -2.9128,-0.97386 -4,-1.54384 -1.0872,-0.56999 -2.5527,-1.27847 -3.2567,-1.5744 -0.704,-0.29594 -1.94759,-1.01095 -2.76352,-1.58887 -0.81591,-0.57795 -2.18391,-1.44374 -3.04,-1.92403 -3.28426,-1.8425 -4.45287,-2.5879 -5.60996,-3.5783 -0.65824,-0.56343 -1.59948,-1.22973 -2.09164,-1.48068 -1.0241,-0.52211 -5.16631,-3.79814 -5.86144,-4.63571 -0.25524,-0.30752 -1.01863,-0.90921 -1.69642,-1.33712 -2.91514,-1.84022 -20.36646,-19.34947 -24.97213,-25.05497 -0.49728,-0.616 -2.29478,-2.58036 -3.99449,-4.36525 -1.69972,-1.78487 -4.0984,-4.43002 -5.3304,-5.87811 -1.232,-1.44813 -3.032,-3.5274 -4,-4.62064 -0.968,-1.09322 -2.03476,-2.33607 -2.37056,-2.76186 -0.33581,-0.42576 -1.05581,-1.28867 -1.6,-1.9175 -0.5442,-0.62887 -1.59498,-1.85287 -2.33504,-2.72001 -0.7401,-0.86716 -2.3961,-2.68659 -3.68,-4.0432 -1.28394,-1.3566 -3.6304,-3.86492 -5.2144,-5.57408 -4.07924,-4.40153 -12.00503,-12.26832 -15.13392,-15.02124 -2.14355,-1.88596 -6.25719,-4.932 -9.94339,-7.36279 -2.61546,-1.7247 -5.03533,-2.88275 -8.39796,-4.01894 -3.16995,-1.07111 -4.54208,-1.36659 -6.84473,-1.47418 -2.69613,-0.12598 -3.12243,-0.0527 -6.67709,1.1473 -2.08842,0.70499 -4.17642,1.62464 -4.64,2.04361 -0.46362,0.41898 -1.65437,1.37066 -2.64611,2.11485 -2.46279,1.84803 -7.22407,6.63424 -7.98803,8.02989 -0.34388,0.62819 -0.93069,1.64614 -1.30404,2.26214 -0.37337,0.616 -1.02998,1.984 -1.45913,3.04 -0.42919,1.056 -1.19018,2.568 -1.69111,3.36 -0.50096,0.792 -1.08118,2.16 -1.28944,3.04 -0.20822,0.88 -0.86352,2.608 -1.45619,3.84 -0.61193,1.27207 -1.3575,3.62276 -1.72541,5.44 -0.5983,2.9552 -0.90828,4.06154 -1.61395,5.76001 -0.31897,0.76777 -0.61923,2.36102 -0.81408,4.32 -0.20633,2.07456 -0.66617,5.23321 -1.57773,10.83718 -0.62854,3.86406 -0.86956,6.98237 -1.1254,14.56 -0.43581,12.90867 -0.73783,15.95917 -1.79693,18.15123 -0.46016,0.95239 -1.05213,2.59559 -1.31552,3.65159 -0.62365,2.50022 -2.44125,5.21235 -5.3793,8.02665 -1.90486,1.82461 -2.82013,2.44016 -4.69344,3.15632 -3.79245,1.44986 -4.78253,1.87744 -6.9112,2.98477 -4.32691,2.25088 -2.30342,2.13002 -36.5359,2.18186 -16.984,0.0256 -32.58918,-0.0635 -34.67821,-0.19824 z"
     id="path103"
     inkscape:connector-curvature="0" />
</svg>
