<?xml version="1.0" encoding="UTF-8" standalone="no"?>
<!-- Created with Inkscape (http://www.inkscape.org/) -->

<svg
   xmlns:dc="http://purl.org/dc/elements/1.1/"
   xmlns:cc="http://creativecommons.org/ns#"
   xmlns:rdf="http://www.w3.org/1999/02/22-rdf-syntax-ns#"
   xmlns:svg="http://www.w3.org/2000/svg"
   xmlns="http://www.w3.org/2000/svg"
   xmlns:sodipodi="http://sodipodi.sourceforge.net/DTD/sodipodi-0.dtd"
   xmlns:inkscape="http://www.inkscape.org/namespaces/inkscape"
   version="1.1"
   id="svg81"
   width="93.7686"
   height="92.547363"
   viewBox="0 0 93.768599 92.547361"
   sodipodi:docname="soc-icon-2.svg"
   inkscape:version="0.92.4 (unknown)">
  <path

     d="M 40.802314,92.133642 C 20.799827,89.683696 4.5798675,74.693075 0.6046575,54.982659 c -0.80621,-3.997459 -0.80621,-13.538675 0,-17.536134 C 4.3752575,18.750607 19.240187,4.2185923 38.130778,0.760847 47.669296,-0.9850893 58.014522,0.3041395 66.65968,4.3161373 84.377293,12.538429 95.337364,31.105488 93.585544,49.930278 92.534224,61.22753 87.740512,71.342554 79.794772,79.029635 71.973236,86.596557 63.018541,90.874573 52.322314,92.154332 c -4.427965,0.52979 -7.064317,0.52505 -11.52,-0.0207 z m 9.92,-33.137936 V 46.534592 h 3.513904 c 3.386205,0 3.519363,-0.02618 3.664122,-0.72 0.213491,-1.023264 0.821974,-6.748915 0.821974,-7.734541 v -0.825459 h -4.03817 -4.038169 l 0.134784,-3.081728 c 0.179081,-4.094512 0.384262,-4.278272 4.777005,-4.278272 h 3.16455 v -4.48 -4.48 h -5.06192 c -5.599392,0 -7.357101,0.338984 -9.612698,1.85386 -2.840796,1.9079 -3.882889,4.554559 -4.120934,10.46614 l -0.167514,4.16 -2.518471,-0.104368 -2.51846,-0.104365 v 4.664365 4.664368 h 2.56 2.559997 v 12.472074 12.472073 l 5.2,0.08793 c 2.86,0.04836 5.308,0.04343 5.44,-0.01098 0.132,-0.05439 0.24,-5.706388 0.24,-12.56 z"
     id="path145"
     inkscape:connector-curvature="0" />
</svg>
