<?xml version="1.0" encoding="UTF-8" standalone="no"?>
<!-- Created with Inkscape (http://www.inkscape.org/) -->

<svg
   xmlns:dc="http://purl.org/dc/elements/1.1/"
   xmlns:cc="http://creativecommons.org/ns#"
   xmlns:rdf="http://www.w3.org/1999/02/22-rdf-syntax-ns#"
   xmlns:svg="http://www.w3.org/2000/svg"
   xmlns="http://www.w3.org/2000/svg"
   xmlns:sodipodi="http://sodipodi.sourceforge.net/DTD/sodipodi-0.dtd"
   xmlns:inkscape="http://www.inkscape.org/namespaces/inkscape"
   version="1.1"
   id="svg66"
   width="149.39091"
   height="149.30991"
   viewBox="0 0 149.39091 149.3099"
   sodipodi:docname="soc-icon-1.svg"
   inkscape:version="0.92.4 (unknown)">
  <path
     d="m 48.911078,149.0732 c 0,-0.19647 -1.05475,-0.32731 -2.64,-0.32747 -6.58779,-6.4e-4 -14.2594,-1.30283 -20.07486,-3.40747 -5.27452,-1.90887 -9.35453,-4.4589 -13.29806,-8.31136 -7.1196397,-6.95525 -11.0235497,-15.84903 -11.98763967,-27.30994 -0.18557,-2.20603 -0.48937,-5.59496 -0.67512,-7.53097 -0.45053,-4.695695 -0.2017,-53.764985 0.30263,-59.679996 C 1.7287583,28.540555 5.2526983,19.850533 12.713128,12.482235 19.672458,5.6088448 28.429278,1.8850014 39.951078,0.8992808 c 2.2,-0.188216 5.584,-0.4909668 7.52,-0.6727798 4.63849,-0.4356078 52.42934,-0.191943 58.720002,0.2993878 5.97888,0.4669798 11.2263,1.3835047 15.02381,2.6240888 15.81214,5.1655638 25.51134,17.9839664 27.19371,35.9390434 0.18434,1.967335 0.48101,5.160973 0.65928,7.096973 0.43398,4.713043 0.4294,51.911814 -0.006,57.119996 -0.9442,11.30628 -1.77921,15.63662 -4.10379,21.28224 -3.70688,9.0028 -10.96268,16.3378 -19.97871,20.19682 -5.0085,2.14373 -10.94331,3.40102 -19.07028,4.04004 -5.90522,0.46437 -56.998022,0.68677 -56.998022,0.24811 z m 56.638282,-13.44702 c 6.70629,-0.45243 11.0401,-1.45774 15.34193,-3.55889 2.98528,-1.45811 3.70847,-1.9898 6.42306,-4.7222 5.57725,-5.61387 7.62435,-11.17014 8.31825,-22.57755 0.40618,-6.677344 0.40618,-53.525748 0,-60.203088 -0.69431,-11.414122 -2.74832,-16.987537 -8.31038,-22.549595 -3.28474,-3.284742 -5.67853,-4.782458 -9.98462,-6.247051 -6.46268,-2.198102 -11.92137,-2.464241 -47.150612,-2.29884 -24.21088,0.11367 -28.59427,0.205875 -31.28451,0.658076 -4.9132,0.82586 -6.86584,1.41507 -10.46353,3.157383 -2.98552,1.445844 -3.68669,1.960143 -6.41114,4.70248 -5.54696,5.58338 -7.5997,11.113262 -8.31224,22.392379 -0.37055,5.865715 -0.52182,51.656198 -0.19148,57.966706 0.6661,12.72498 2.68183,18.94418 7.9407,24.49982 3.91518,4.13611 8.20952,6.49342 14.26417,7.83008 2.68927,0.5937 9.28321,1.17305 15.90212,1.39718 6.66041,0.22553 49.174082,-0.12683 53.918282,-0.44689 z M 68.271078,112.39513 c -14.06559,-2.49136 -25.52607,-12.34845 -29.89179,-25.709693 -1.41182,-4.320896 -1.78927,-6.972909 -1.75618,-12.339443 0.0337,-5.471405 0.40257,-7.814182 1.93251,-12.274563 3.16857,-9.237687 10.27629,-17.301987 19.15546,-21.733495 2.40941,-1.202508 6.99061,-2.730886 9.92,-3.309497 2.93095,-0.578922 11.14905,-0.578922 14.08,0 18.20407,3.595664 31.200002,19.26704 31.200002,37.623081 0,18.703661 -13.499062,34.63885 -31.976392,37.74707 -3.64987,0.61397 -9.18628,0.61246 -12.66361,-0.003 z m 10.72,-13.061315 c 9.51304,-1.703827 17.20086,-8.774365 19.8864,-18.289648 1.00479,-3.560128 1.00994,-9.178483 0.0117,-12.713911 -2.49053,-8.820134 -9.06217,-15.391776 -17.8823,-17.882304 -3.51573,-0.992729 -9.15576,-0.992729 -12.67148,0 -8.81562,2.489252 -15.35223,9.021828 -17.89334,17.882304 -0.58289,2.032416 -0.7124,3.26802 -0.69767,6.655738 0.0166,3.81711 0.10305,4.410573 1.04877,7.2 1.23091,3.630592 2.95572,6.649459 5.20564,9.111229 6.00937,6.575213 14.52769,9.552647 22.99234,8.036592 z M 112.43108,43.50409 c -6.31605,-1.665232 -8.82563,-8.978806 -4.86349,-14.173513 3.07627,-4.033273 9.51475,-4.391989 13.17282,-0.733916 3.2694,3.269395 3.42911,8.590034 0.36659,12.212984 -1.74145,2.060135 -6.03006,3.392029 -8.67592,2.694445 z"
     id="path76"
     inkscape:connector-curvature="0" />
</svg>
