<?xml version="1.0" encoding="UTF-8" standalone="no"?>
<!-- Created with Inkscape (http://www.inkscape.org/) -->

<svg
   xmlns:dc="http://purl.org/dc/elements/1.1/"
   xmlns:cc="http://creativecommons.org/ns#"
   xmlns:rdf="http://www.w3.org/1999/02/22-rdf-syntax-ns#"
   xmlns:svg="http://www.w3.org/2000/svg"
   xmlns="http://www.w3.org/2000/svg"
   xmlns:sodipodi="http://sodipodi.sourceforge.net/DTD/sodipodi-0.dtd"
   xmlns:inkscape="http://www.inkscape.org/namespaces/inkscape"
   version="1.1"
   id="svg61"
   width="5323.3892"
   height="4329.8726"
   viewBox="0 0 5323.3892 4329.8726"
   sodipodi:docname="soc-icon-4.svg"
   inkscape:version="0.92.4 (unknown)">
  <path
     d="m 1590.4289,4329.6996 c -183.382,-6.1348 -338.846,-23.0752 -506.666,-55.2098 C 761.38889,4212.7609 446.86589,4097.8426 157.76289,3936.154 88.634889,3897.4924 -4.1951108,3840.8976 0.14688922,3840.0615 c 1.24399998,-0.2396 14.41699978,0.7946 29.27199978,2.2982 125.477001,12.7004 260.348001,14.8262 385.010001,6.0682 319.717,-22.4611 632.23401,-115.3722 911.33401,-270.9388 90.03,-50.182 167.491,-100.5352 252.666,-164.2454 l 36.667,-27.4262 -20.667,-0.8954 c -80.319,-3.4793 -149.533,-13.2757 -223.748,-31.6685 -271.381,-67.2564 -508.82701,-239.0203 -660.00601,-477.4361 -36.66,-57.814 -72.248,-128.5857 -96.214,-191.3333 -10.721,-28.0707 -20.541,-56.6016 -19.753,-57.3895 0.365,-0.3657 11.102,1.1167 23.86,3.2941 114.746,19.5855 234.778,20.2811 352.302,2.0414 42.42201,-6.5839 117.49501,-23.2468 112.89301,-25.0575 -1.1,-0.4328 -10.4,-2.6373 -20.667,-4.8989 -201.93601,-44.4836 -395.96201,-153.1335 -541.86101,-303.4295 -194.986,-200.862 -304.371,-461.2768 -310.393,-738.9561 l -0.819,-37.7292 28.537,14.6525 c 124.498,63.9262 252.156,102.1432 389.869,116.7154 22.249,2.3542 68.025,5.2365 72.513,4.5658 2.675,-0.3997 1.193,-1.8362 -9.333,-9.0457 -100.426,-68.7848 -195.02,-161.5613 -267.025,-261.8925 -159.533,-222.2922 -229.49,-492.75124 -198.013,-765.53689 16.126,-139.75836 58.884,-273.70475 127.399,-399.10071 6.281,-11.4946 11.849,-21.36478 12.374,-21.93374 0.525,-0.56896 10.808,10.83104 22.852,25.33333 97.619,117.54898 219.305,242.59848 335.9,345.18276 404.87001,356.21916 892.39401,600.39265 1417.20001,709.79675 140.507,29.2908 296.673,50.3339 435.467,58.6782 12.466,0.7495 27.399,1.7143 33.184,2.144 9.053,0.6727 10.409,0.5 9.741,-1.2407 -1.905,-4.9634 -12.014,-56.9367 -15.571,-80.0511 -10.249,-66.5996 -13.917,-128.9239 -11.858,-201.4755 5.403,-190.40565 60.332,-374.0871 160.885,-537.99996 44.631,-72.75389 95.967,-137.2731 160.195,-201.33478 35.376,-35.28379 64.258,-60.94186 100.757,-89.50935 148.271,-116.05127 327.46,-192.579458 512.8139,-219.01344 289.2962,-41.257546 577.9862,31.379935 810.5196,203.93535 42.995,31.90509 74.8608,59.38349 115.397,99.50854 l 30.7302,30.41857 34.171,-7.34896 c 148.8194,-32.00577 290.4036,-78.04058 430.7104,-140.04167 63.1133,-27.88962 157.3635,-76.016 212.284,-108.397406 8.7775,-5.175283 16.1312,-9.237536 16.3415,-9.027229 0.7092,0.709199 -14.0099,42.788435 -22.8663,65.370495 -36.1253,92.11249 -86.5457,181.78772 -146.6211,260.77322 -79.2772,104.23142 -175.7633,192.94031 -286.0283,262.97294 -11.3593,7.21469 -20.983,13.47677 -21.3858,13.91572 -2.3315,2.54026 81.6204,-9.83232 142.6008,-21.0161 153.0659,-28.07221 323.3769,-80.0537 466.5632,-142.40207 6.9099,-3.00877 12.7783,-5.47049 13.0408,-5.47049 1.226,0 -47.8437,69.62785 -68.1252,96.66666 -110.0187,146.67447 -243.2941,284.30882 -385.5013,398.10936 -22.1531,17.728 -34.7327,27.4442 -74.6442,57.6538 -8.0667,6.1058 -14.5405,11.7352 -14.3864,12.5098 0.1541,0.7746 0.9591,30.13 1.7889,65.2343 3.014,127.4996 -2.21,256.6873 -15.4668,382.4927 -51.934,492.8454 -224.3073,981.6765 -495.3185,1404.6666 -294.7453,460.0341 -693.2183,825.4782 -1161.2844,1065.0267 -328.533,168.1382 -688.216,273.83 -1069.333,314.2208 -124.363,13.18 -214.117,17.984 -348,18.6264 -49.5,0.2375 -95.7,0.2412 -102.667,0.013 z"
     id="path124"
     inkscape:connector-curvature="0" />
</svg>
