<?xml version="1.0" encoding="UTF-8" standalone="no"?>
<!-- Created with Inkscape (http://www.inkscape.org/) -->

<svg
   xmlns:dc="http://purl.org/dc/elements/1.1/"
   xmlns:cc="http://creativecommons.org/ns#"
   xmlns:rdf="http://www.w3.org/1999/02/22-rdf-syntax-ns#"
   xmlns:svg="http://www.w3.org/2000/svg"
   xmlns="http://www.w3.org/2000/svg"
   xmlns:sodipodi="http://sodipodi.sourceforge.net/DTD/sodipodi-0.dtd"
   xmlns:inkscape="http://www.inkscape.org/namespaces/inkscape"
   version="1.1"
   id="svg97"
   width="366.41797"
   height="366.46817"
   viewBox="0 0 366.41797 366.46817"
   sodipodi:docname="step-icon-4.svg"
   inkscape:version="0.92.4 (unknown)">
  <metadata
     id="metadata103">
    <rdf:RDF>
      <cc:Work
         rdf:about="">
        <dc:format>image/svg+xml</dc:format>
        <dc:type
           rdf:resource="http://purl.org/dc/dcmitype/StillImage" />
        <dc:title></dc:title>
      </cc:Work>
    </rdf:RDF>
  </metadata>
  <defs
     id="defs101" />
  <sodipodi:namedview
     pagecolor="#ffffff"
     bordercolor="#666666"
     borderopacity="1"
     objecttolerance="10"
     gridtolerance="10"
     guidetolerance="10"
     inkscape:pageopacity="0"
     inkscape:pageshadow="2"
     inkscape:window-width="1920"
     inkscape:window-height="978"
     id="namedview99"
     showgrid="false"
     inkscape:zoom="0.64339193"
     inkscape:cx="856.01592"
     inkscape:cy="181.87518"
     inkscape:window-x="0"
     inkscape:window-y="27"
     inkscape:window-maximized="1"
     inkscape:current-layer="svg97" />
  <path
     style="fill:#020202;stroke-width:0.71641791"
     d="m 165.8262,365.66391 c -14.20625,-1.35907 -32.33379,-5.45854 -45.49254,-10.28794 -8.85518,-3.24994 -26.83451,-12.014 -34.02985,-16.5879 C 63.30056,324.16546 41.94711,302.81401 27.26535,279.75515 21.42727,270.58599 12.78559,252.09286 9.02006,240.71038 2.3975,220.6916 0,205.36268 0,183.03873 0,160.71925 2.39611,145.3956 9.01794,125.36709 18.19138,97.620946 34.50582,71.906415 56.21458,50.976579 84.36118,23.839893 117.7909,7.5216235 157.9456,1.3179504 c 10.22828,-1.58021168 37.67403,-1.78698208 48,-0.36162166 20.73826,2.86263776 40.24818,8.87179106 58.36181,17.97573226 20.11583,10.110254 35.06024,21.044674 50.26103,36.774636 13.95281,14.43854 23.89005,28.505277 32.81654,46.453703 25.3773,51.02592 25.3773,110.73075 0,161.75667 -8.92649,17.94842 -18.86373,32.01516 -32.81654,46.4537 -14.98032,15.50182 -30.08201,26.60798 -49.51836,36.41703 -30.76954,15.52864 -65.38351,22.11352 -99.22388,18.87611 z m 40.1194,-16.83702 c 25.83027,-3.79937 48.3146,-12.34821 69.49254,-26.42197 59.34355,-39.43666 87.19862,-111.34114 69.84972,-180.30864 C 333.99102,97.187621 303.84312,58.320671 263.06593,36.095017 207.80492,5.974935 140.78257,9.3404753 88.81127,44.84525 48.83478,72.155635 23.29059,114.02431 16.73752,162.97903 c -1.17281,8.76149 -1.17282,31.35789 -10e-6,40.11941 8.82211,65.90588 52.88426,119.12639 115.31369,139.28175 12.66783,4.08981 25.4115,6.54155 40.93917,7.87622 6.04629,0.51971 25.4153,-0.32048 32.95523,-1.42952 z m -36.53732,-78.86235 c -22.23627,-2.98522 -45.04016,-14.38483 -60.3582,-30.17296 -4.87419,-5.02377 -5.55224,-6.04324 -5.55224,-8.34794 0,-5.23765 3.04393,-8.2855 8.27484,-8.2855 2.12605,0 3.44423,0.90227 9.32485,6.38272 3.76683,3.51049 9.03633,7.8504 11.71001,9.64424 30.76977,20.64428 69.38842,20.69385 100.30451,0.12877 2.59278,-1.72469 7.85638,-6.06529 11.6969,-9.64576 6.0064,-5.59973 7.32896,-6.50997 9.45882,-6.50997 5.23091,0 8.27484,3.04785 8.27484,8.2855 0,2.3047 -0.67805,3.32417 -5.55224,8.34794 -13.52656,13.94166 -31.37317,23.80482 -51.76119,28.60649 -4.68438,1.10323 -9.23054,1.48827 -19.70149,1.66863 -7.48657,0.12895 -14.7403,0.083 -16.11941,-0.10216 z M 84.51276,174.50802 c -0.78805,-0.34431 -2.2388,-1.49598 -3.22388,-2.55926 -1.61542,-1.74366 -1.77546,-2.45514 -1.6321,-7.25575 0.18488,-6.19108 2.48846,-13.54388 5.91721,-18.88713 2.92753,-4.56216 10.15754,-11.29237 14.85445,-13.82757 4.70897,-2.54173 13.61,-4.82017 18.83059,-4.82017 5.19139,0 14.08727,2.26787 18.85936,4.80791 2.0393,1.08546 5.99965,4.23579 8.80078,7.00073 6.97695,6.88681 10.51431,14.00826 11.73054,23.61607 1.00509,7.93999 -1.64563,12.21708 -7.57152,12.21708 -2.53202,0 -3.55062,-0.41573 -5.29664,-2.16176 -1.81104,-1.81103 -2.26714,-3.00096 -2.81126,-7.33444 -1.16416,-9.27136 -5.61451,-15.77721 -13.42157,-19.62061 -4.07483,-2.00603 -5.43392,-2.31131 -10.28969,-2.31131 -4.85389,0 -6.21543,0.30556 -10.28204,2.30755 -2.86274,1.40932 -5.80818,3.58092 -7.5668,5.57883 -3.00241,3.41093 -5.79008,9.66313 -5.79695,13.00145 -0.006,3.27827 -1.3417,6.98479 -3.11605,8.65171 -1.88401,1.76993 -5.79692,2.5524 -7.98443,1.59667 z m 127.52239,0 c -0.78806,-0.34431 -2.23784,-1.49219 -3.22173,-2.55084 -1.58811,-1.70879 -1.77216,-2.47805 -1.63984,-6.85399 0.18413,-6.08923 2.90586,-14.52407 6.37118,-19.74481 3.18905,-4.80451 9.65146,-10.80311 14.41463,-13.38007 4.6952,-2.54021 13.59812,-4.82017 18.82203,-4.82017 5.22059,0 14.12162,2.27844 18.83059,4.82017 4.69691,2.5352 11.92692,9.26541 14.85445,13.82757 3.44085,5.36212 5.73249,12.69386 5.91722,18.93129 0.15386,5.19538 0.0842,5.44163 -2.1832,7.71472 -1.93763,1.94251 -2.88659,2.34804 -5.49453,2.34804 -4.98784,0 -8.26565,-4.17322 -8.27874,-10.54029 -0.007,-3.33832 -2.79453,-9.59052 -5.79695,-13.00145 -1.75862,-1.99791 -4.70406,-4.16951 -7.5668,-5.57883 -4.06661,-2.00199 -5.42815,-2.30755 -10.28204,-2.30755 -4.85577,0 -6.21486,0.30528 -10.28969,2.31131 -7.92665,3.90228 -12.2435,10.23842 -13.43375,19.71769 -0.51712,4.11832 -1.01536,5.45365 -2.64171,7.08 -2.1458,2.1458 -5.98453,3.0743 -8.38112,2.02721 z"
     id="path138"
     inkscape:connector-curvature="0" />
</svg>
