<?xml version="1.0" encoding="UTF-8" standalone="no"?>
<!-- Created with Inkscape (http://www.inkscape.org/) -->

<svg
   xmlns:dc="http://purl.org/dc/elements/1.1/"
   xmlns:cc="http://creativecommons.org/ns#"
   xmlns:rdf="http://www.w3.org/1999/02/22-rdf-syntax-ns#"
   xmlns:svg="http://www.w3.org/2000/svg"
   xmlns="http://www.w3.org/2000/svg"
   xmlns:sodipodi="http://sodipodi.sourceforge.net/DTD/sodipodi-0.dtd"
   xmlns:inkscape="http://www.inkscape.org/namespaces/inkscape"
   version="1.1"
   id="svg87"
   width="579.1084"
   height="673.17688"
   viewBox="0 0 579.1084 673.17688"
   sodipodi:docname="step-icon-1.svg"
   inkscape:version="0.92.4 (unknown)">
  <metadata
     id="metadata93">
    <rdf:RDF>
      <cc:Work
         rdf:about="">
        <dc:format>image/svg+xml</dc:format>
        <dc:type
           rdf:resource="http://purl.org/dc/dcmitype/StillImage" />
        <dc:title></dc:title>
      </cc:Work>
    </rdf:RDF>
  </metadata>
  <defs
     id="defs91" />
  <sodipodi:namedview
     pagecolor="#ffffff"
     bordercolor="#666666"
     borderopacity="1"
     objecttolerance="10"
     gridtolerance="10"
     guidetolerance="10"
     inkscape:pageopacity="0"
     inkscape:pageshadow="2"
     inkscape:window-width="1920"
     inkscape:window-height="978"
     id="namedview89"
     showgrid="false"
     inkscape:zoom="0.35050456"
     inkscape:cx="1200.0891"
     inkscape:cy="330.95149"
     inkscape:window-x="0"
     inkscape:window-y="27"
     inkscape:window-maximized="1"
     inkscape:current-layer="svg87" />
  <path
     style="fill:#020202;stroke-width:1.31506848"
     d="m 259.39185,671.74915 c -17.47793,-4.11924 -31.78351,-17.52602 -37.81938,-35.44327 -2.5361,-7.52829 -2.77868,-10.65459 -2.38936,-30.79505 0.42662,-22.07121 0.4979,-22.55254 4.63247,-31.28069 7.47761,-15.78533 21.77483,-26.83472 38.77633,-29.96767 4.55985,-0.84027 25.2177,-1.22899 53.04074,-0.99806 l 45.57207,0.37823 3.83597,4.29472 3.83598,4.29471 v 21.79065 21.79064 l 41.09589,-0.57712 c 45.43657,-0.63807 48.88291,-1.14379 65.90498,-9.67097 18.7656,-9.4006 32.88346,-23.48624 42.0419,-41.94596 8.01349,-16.15194 9.00742,-21.76443 9.719,-54.88078 l 0.64285,-29.91781 h -11.97628 -11.97629 l -0.0229,16.10959 c -0.0384,27.07602 -4.67949,41.36699 -17.64483,54.33234 -7.44765,7.44764 -17.30027,13.09462 -27.7022,15.87739 -4.6261,1.23758 -16.04853,1.76368 -38.53106,1.77466 -33.8723,0.0166 -37.84777,-0.61258 -40.99161,-6.48689 -0.89822,-1.67845 -1.35399,-40.21864 -1.35399,-114.49851 V 313.96086 l 3.91932,-3.91932 3.91933,-3.91931 37.17656,0.40404 37.17657,0.40404 8.88793,4.21013 c 12.11062,5.73669 22.26887,15.62352 28.00154,27.25336 5.26951,10.69025 7.14691,20.28782 7.15771,36.5913 0.005,7.33436 0.52091,11.50685 1.42316,11.50685 0.99889,0 1.24775,-18.48338 0.84545,-62.79452 -0.52406,-57.7198 -0.79584,-63.85729 -3.36313,-75.9452 C 484.54047,159.76995 419.83219,94.963293 331.61336,75.878056 320.24002,73.417551 314.02983,72.978023 289.97256,72.930927 258.41607,72.869147 245.13859,74.847405 220.27393,83.315557 154.91808,105.57379 104.01752,156.7666 82.76846,221.61055 c -9.65185,29.4537 -10.22114,34.94439 -10.78921,104.05949 -0.45962,55.92132 -0.30325,62.13698 1.56322,62.13698 1.75871,0 2.07688,-2.14873 2.09337,-14.13699 0.0337,-24.5284 5.13644,-38.34216 19.01032,-51.46349 3.98705,-3.77079 11.24874,-8.75053 16.1371,-11.0661 l 8.88793,-4.21013 36.36967,-0.42057 36.36965,-0.42056 4.39747,3.92874 4.39746,3.92873 0.35788,109.72398 c 0.2806,86.02558 -0.004,110.83069 -1.31507,114.848 -1.2643,3.87239 -2.90358,5.72504 -6.71104,7.5846 -4.73203,2.31112 -7.12882,2.38897 -39.45206,1.28155 l -34.41396,-1.17905 -8.92616,-4.1945 C 100.21611,537.06358 88.05895,526.02241 83.0922,516.89685 77.71469,507.01661 75.65765,495.80179 75.63584,476.24538 l -0.0194,-17.42466 H 42.10294 8.58944 L 4.29472,454.98222 0,451.14372 v -92.49027 c 0,-69.16317 0.43296,-95.47534 1.71665,-104.32588 6.25017,-43.09251 19.53577,-81.0689 40.21852,-114.96315 23.06085,-37.79143 57.74502,-72.774397 95.16034,-95.980109 112.4041,-69.715226 257.17784,-54.201737 353.06528,37.833341 45.58977,43.758148 75.31248,101.083168 86.00635,165.877038 1.97117,11.94327 2.34663,26.40029 2.77999,107.04078 0.37926,70.57648 0.11691,94.15981 -1.07953,97.04832 -2.11534,5.10687 -7.46013,7.63693 -16.13317,7.63693 h -7.16329 l -0.6327,31.89041 c -0.68803,34.67874 -1.61802,40.36747 -9.75312,59.65916 -11.39224,27.01569 -36.65276,51.58764 -64.86407,63.09595 -17.37371,7.08731 -28.39925,8.38674 -71.32125,8.40569 l -39.12329,0.0173 v 21.1726 21.1726 l -4.47123,4.47124 -4.47124,4.47123 -47.80274,-0.1321 c -26.2915,-0.0727 -50.02432,-0.65569 -52.73961,-1.29563 z m 82.87454,-63.33939 -0.34863,-38.46576 h -37.47945 c -20.6137,0 -39.12177,0.45886 -41.12904,1.01968 -5.52387,1.54334 -13.68601,9.63394 -16.10246,15.96133 -1.71329,4.48617 -2.06425,9.38541 -1.72068,24.01879 0.40815,17.38293 0.62358,18.67278 3.95977,23.70808 2.2957,3.46491 5.94605,6.52992 10.44999,8.77432 l 6.92185,3.44931 h 37.89864 37.89865 z M 174.24653,426.60154 v -94.0274 H 150.8335 c -22.55533,0 -23.66343,0.1248 -30.24864,3.40633 -8.37425,4.17307 -14.17208,10.93593 -16.73226,19.51729 -2.96382,9.93429 -2.84627,132.65317 0.13669,142.69787 2.44853,8.2451 11.77535,18.42562 18.96957,20.70591 2.57212,0.81527 14.9009,1.51812 27.94521,1.59314 l 23.34246,0.13426 z m 281.28028,92.10574 c 8.40084,-2.96399 14.19844,-8.15544 18.19409,-16.29184 l 3.64892,-7.43034 0.42758,-60.49315 c 0.23516,-33.27123 0.0409,-64.73936 -0.43176,-69.92916 -1.12461,-12.34872 -6.45642,-21.65175 -15.66855,-27.33868 l -6.46723,-3.99243 -25.42318,-0.42932 -25.42316,-0.42932 v 94.12795 94.12795 h 22.84835 c 16.67888,0 24.31904,-0.51889 28.29494,-1.92166 z M 75.6164,423.31387 v -9.20548 h -8.59019 c -4.7246,0 -10.56506,-0.82515 -12.97881,-1.83369 -9.02463,-3.77072 -8.67757,-0.83712 -8.67757,-73.35047 0,-50.77312 0.44423,-68.7823 1.98697,-80.55097 13.67637,-104.32922 91.95505,-187.645181 196.0028,-208.615694 20.25419,-4.082173 58.4698,-5.029086 79.50468,-1.969984 73.40622,10.675468 136.24764,51.966774 175.23621,115.142728 13.71359,22.22111 25.46621,52.52787 31.39099,80.94869 2.87607,13.79634 3.01986,17.43231 3.46423,87.59906 l 0.46362,73.2053 -3.80614,4.2598 c -3.58051,4.00729 -4.44274,4.29665 -14.5453,4.88148 l -10.73917,0.62168 v 9.03652 9.03651 h 24.32877 24.32877 l -10e-4,-75.28767 c -0.001,-74.60814 -0.79812,-93.93686 -4.75123,-115.23485 C 528.78462,137.21032 447.03722,53.640444 342.84257,32.026345 265.72908,16.029951 185.3674,35.505506 124.27393,84.996189 c -11.821,9.575974 -31.47231,29.308201 -40.94361,41.112201 -22.27923,27.76644 -40.20436,64.21163 -49.15683,99.94521 -7.13663,28.48564 -7.50492,34.03927 -8.17587,123.28767 l -0.62531,83.17808 H 50.49436 75.6164 Z"
     id="path159"
     inkscape:connector-curvature="0" />
</svg>
