<?xml version="1.0" encoding="UTF-8" standalone="no"?>
<!-- Created with Inkscape (http://www.inkscape.org/) -->

<svg
   xmlns:dc="http://purl.org/dc/elements/1.1/"
   xmlns:cc="http://creativecommons.org/ns#"
   xmlns:rdf="http://www.w3.org/1999/02/22-rdf-syntax-ns#"
   xmlns:svg="http://www.w3.org/2000/svg"
   xmlns="http://www.w3.org/2000/svg"
   xmlns:sodipodi="http://sodipodi.sourceforge.net/DTD/sodipodi-0.dtd"
   xmlns:inkscape="http://www.inkscape.org/namespaces/inkscape"
   version="1.1"
   id="svg107"
   width="468.07474"
   height="467.82629"
   viewBox="0 0 468.07474 467.82629"
   sodipodi:docname="step-icon-2.svg"
   inkscape:version="0.92.4 (unknown)">
  <metadata
     id="metadata113">
    <rdf:RDF>
      <cc:Work
         rdf:about="">
        <dc:format>image/svg+xml</dc:format>
        <dc:type
           rdf:resource="http://purl.org/dc/dcmitype/StillImage" />
        <dc:title></dc:title>
      </cc:Work>
    </rdf:RDF>
  </metadata>
  <defs
     id="defs111" />
  <sodipodi:namedview
     pagecolor="#ffffff"
     bordercolor="#666666"
     borderopacity="1"
     objecttolerance="10"
     gridtolerance="10"
     guidetolerance="10"
     inkscape:pageopacity="0"
     inkscape:pageshadow="2"
     inkscape:window-width="1920"
     inkscape:window-height="978"
     id="namedview109"
     showgrid="false"
     inkscape:zoom="0.4609375"
     inkscape:cx="841.47854"
     inkscape:cy="266.11613"
     inkscape:window-x="0"
     inkscape:window-y="27"
     inkscape:window-maximized="1"
     inkscape:current-layer="svg107" />
  <path
     style="fill:#030303"
     d="m 173.1904,467.01464 c -10.00018,-4.18524 -14.81154,-17.456 -9.86923,-27.22145 1.57976,-3.12143 70.5786,-123.02831 109.52751,-190.33801 l 2.38859,-4.12784 -7.27344,-3.50503 c -4.00038,-1.92776 -9.74843,-5.29893 -12.77343,-7.49148 l -5.5,-3.98645 -8.25562,8.10284 -8.25562,8.10283 -5.72789,-5.72789 -5.72789,-5.72789 8.10283,-8.25562 8.10284,-8.25562 -3.98645,-5.5 c -2.19255,-3.025 -5.55458,-8.7538 -7.47117,-12.73068 -2.97813,-6.1795 -3.74151,-7.09325 -5.25106,-6.28536 -0.97149,0.51992 -23.31316,13.39217 -49.64815,28.60498 C 68.178273,282.39908 32.520313,302.90234 28.480243,304.94959 13.929543,312.32295 -2.6779969,299.46624 0.36397311,283.1834 1.9136331,274.88844 4.2622231,273.09365 42.350133,251.0976 l 35.47216,-20.48542 1.07493,-5.51458 c 2.66728,-13.68362 9.93494,-25.72665 20.29318,-33.62727 3.024997,-2.30728 49.715197,-29.71229 103.755997,-60.90002 l 98.256,-56.704959 4.17643,-8.14116 c 8.54314,-16.65323 26.64752,-30.867699 45.43481,-35.67268 9.40718,-2.405951 25.05443,-2.604213 34.2605,-0.434106 l 6.38374,1.504811 13.67374,-13.375714 C 416.63676,6.4921324 419.71413,4.0307764 424.5354,2.2269104 c 20.90979,-7.823357 42.13975,5.797801 43.41658,27.8561216 0.73109,12.630093 -1.40397,16.680719 -17.42505,33.058779 l -13.37571,13.67374 1.50481,6.38374 c 2.1701,9.20607 1.97184,24.853319 -0.43411,34.260499 -5.07323,19.83615 -19.03289,37.07268 -37.68704,46.53363 l -6.15552,3.12194 -55.23109,95.73384 c -30.3771,52.65361 -57.22176,98.76018 -59.6548,102.45905 -8.14898,12.38862 -21.30089,21.27249 -35.30307,23.84657 l -6.5,1.19492 -20.5,35.52286 c -23.65261,40.98577 -24.07071,41.48931 -34.80637,41.91988 -3.6815,0.14764 -7.81863,-0.20238 -9.19363,-0.77784 z m 10.80447,-16.19601 c 0.57714,-0.69542 8.93459,-14.89323 18.57211,-31.5507 14.39879,-24.88686 17.21973,-30.38091 15.82309,-30.81695 -0.93482,-0.29187 -2.66403,-0.91247 -3.8427,-1.37913 -1.97858,-0.78336 -3.49404,1.4939 -19.75,29.678 -16.48449,28.58034 -18.63194,32.97487 -16.9403,34.66651 1.12178,1.12179 5.0263,0.74155 6.1378,-0.59773 z m 66.46896,-80.54945 c 4.25119,-2.09285 8.27404,-5.11496 11.39827,-8.56279 3.33732,-3.68301 21.19466,-33.67984 57.8283,-97.14026 29.15,-50.49651 53.13348,-92.13831 53.29663,-92.53735 0.16314,-0.39903 -3.02909,-0.7755 -7.09384,-0.8366 -4.06476,-0.0611 -10.94824,-1.06128 -15.29663,-2.22263 -4.34839,-1.16134 -8.67666,-2.1734 -9.61839,-2.24903 -1.26777,-0.1018 -16.9399,26.20973 -60.3753,101.36251 -32.26468,55.825 -58.87451,102.25059 -59.13295,103.16798 -0.62735,2.22693 2.03427,2.71852 13.32222,2.46056 8.00408,-0.18292 9.89406,-0.59807 15.67169,-3.44239 z M 51.453123,273.5167 l 30.456,-17.56634 -1.26639,-3.68366 c -0.69651,-2.02602 -1.64572,-3.54511 -2.10935,-3.37576 -1.48838,0.54366 -56.74035,32.46961 -59.59298,34.43428 -3.95821,2.72612 -3.75064,7.75781 0.32003,7.75781 0.95518,0 15.44189,-7.90485 32.19269,-17.56633 z M 200.1904,187.68059 c 75.36226,-43.55456 101.46459,-59.10304 101.36251,-60.37903 -0.0756,-0.94519 -1.08813,-5.27801 -2.25,-9.62849 -1.23971,-4.6419 -2.11251,-10.94256 -2.11251,-15.25 0,-7.065669 -0.50717,-8.350769 -2.55,-6.461409 -0.5225,0.48324 -8.375,5.145239 -17.45,10.359989 -9.075,5.21475 -38.55,22.21064 -65.5,37.76864 -26.95,15.55801 -60.7,35.01963 -75,43.24807 -28.63074,16.47455 -33.76591,20.52134 -38.684847,30.48574 -3.36702,6.82065 -4.64644,16.2298 -3.367,24.76173 0.55961,3.73175 1.04574,4.59518 2.37764,4.22304 0.92082,-0.25728 47.349207,-26.86501 103.174207,-59.12828 z m 104.39097,6.94117 c 11.49004,-20.00683 20.84067,-36.52515 20.77919,-36.70739 -0.0615,-0.18224 -3.45142,-3.73656 -7.53319,-7.8985 l -7.4214,-7.56717 -35.85778,20.79039 c -19.72179,11.43471 -36.28455,20.94468 -36.80614,21.13328 -1.1656,0.42145 5.62105,14.93723 9.14184,19.55322 l 2.56307,3.36037 8.64731,-8.60724 8.6473,-8.60724 5.72097,5.78128 5.72096,5.78129 -8.46957,8.42557 c -7.77805,7.73765 -8.34376,8.56457 -6.92877,10.12812 1.48444,1.64029 18.80689,10.93974 20.21569,10.85267 0.37925,-0.0234 10.09049,-16.41183 21.58052,-36.41865 z m 77.10903,-40.74267 c 24.6116,-5.32194 42.5,-28.17535 42.5,-54.296059 0,-25.16836 -16.32943,-46.67296 -40.9315,-53.90365 -8.62417,-2.534693 -22.60848,-2.135932 -31.66071,0.9028 -12.62908,4.23945 -21.84347,11.05122 -28.84868,21.3265 -15.31828,22.46896 -12.63717,52.096289 6.44089,71.174349 13.85753,13.85753 32.51862,19.11678 52.5,14.79606 z m -18.69894,-22.82632 c -25.35229,-4.25872 -34.97217,-36.271599 -16.34094,-54.379089 6.60384,-6.4182 13.75645,-8.90563 24.03988,-8.36025 9.5128,0.50452 14.65567,2.79516 21.05218,9.37668 10.46418,10.76685 11.35753,29.467269 1.99414,41.743309 -6.66374,8.73661 -19.35459,13.53278 -30.74526,11.61935 z m 14.76925,-18.42385 c 4.05974,-2.66005 6.42221,-7.4591 6.42221,-13.045889 0,-9.33105 -6.19742,-15.48938 -15.59464,-15.49626 -8.98247,-0.007 -15.56455,6.54661 -15.56455,15.49626 0,12.705599 13.99328,20.085429 24.73698,13.045889 z m 73.00048,-73.746228 c 3.22938,-6.101588 0.87388,-15.922715 -4.78541,-19.952486 -3.62433,-2.580749 -10.37505,-3.46773 -14.93607,-1.962458 -2.10067,0.693284 -7.3019,5.045517 -13.68967,11.455096 l -10.30182,10.337006 2.82109,1.840227 c 4.31835,2.816903 13.81427,12.144114 16.90633,16.605964 l 2.76527,3.99028 9.89554,-9.80665 c 5.44255,-5.39365 10.53868,-11.021792 11.32474,-12.506979 z"
     id="path117"
     inkscape:connector-curvature="0" />
</svg>
