<?xml version="1.0" encoding="UTF-8" standalone="no"?>
<!-- Created with Inkscape (http://www.inkscape.org/) -->

<svg
   xmlns:dc="http://purl.org/dc/elements/1.1/"
   xmlns:cc="http://creativecommons.org/ns#"
   xmlns:rdf="http://www.w3.org/1999/02/22-rdf-syntax-ns#"
   xmlns:svg="http://www.w3.org/2000/svg"
   xmlns="http://www.w3.org/2000/svg"
   xmlns:sodipodi="http://sodipodi.sourceforge.net/DTD/sodipodi-0.dtd"
   xmlns:inkscape="http://www.inkscape.org/namespaces/inkscape"
   version="1.1"
   id="svg77"
   width="606.06818"
   height="585.28735"
   viewBox="0 0 606.06818 585.28735"
   sodipodi:docname="step-icon-3.svg"
   inkscape:version="0.92.4 (unknown)">
  <metadata
     id="metadata83">
    <rdf:RDF>
      <cc:Work
         rdf:about="">
        <dc:format>image/svg+xml</dc:format>
        <dc:type
           rdf:resource="http://purl.org/dc/dcmitype/StillImage" />
        <dc:title></dc:title>
      </cc:Work>
    </rdf:RDF>
  </metadata>
  <defs
     id="defs81" />
  <sodipodi:namedview
     pagecolor="#ffffff"
     bordercolor="#666666"
     borderopacity="1"
     objecttolerance="10"
     gridtolerance="10"
     guidetolerance="10"
     inkscape:pageopacity="0"
     inkscape:pageshadow="2"
     inkscape:window-width="1920"
     inkscape:window-height="978"
     id="namedview79"
     showgrid="false"
     inkscape:zoom="0.32835388"
     inkscape:cx="1090.3418"
     inkscape:cy="317.08302"
     inkscape:window-x="0"
     inkscape:window-y="27"
     inkscape:window-maximized="1"
     inkscape:current-layer="svg77" />
  <path
     style="fill:#020202;stroke-width:1.18518519"
     d="m 181.07502,583.59946 c -31.62251,-8.67579 -53.45673,-36.94927 -53.52004,-69.304 -0.0248,-12.66217 1.43088,-19.85797 6.11376,-30.22222 9.01076,-19.94278 27.83109,-35.59157 49.03395,-40.77093 8.10924,-1.98089 26.06986,-1.72246 34.52048,0.49671 26.04625,6.83986 45.52786,26.49284 52.23665,52.69612 2.70748,10.57491 1.80495,30.86232 -1.83176,41.17547 -6.97777,19.78777 -24.39161,37.20596 -44.21493,44.22597 -9.73368,3.44699 -32.62507,4.3677 -42.33811,1.70288 z m 32.17145,-26.64278 c 14.17183,-4.4701 24.98264,-15.2809 29.45273,-29.45273 7.61861,-24.1538 -5.45865,-49.48666 -29.45273,-57.05489 -35.08636,-11.06696 -68.07613,21.4723 -57.22192,56.44051 7.62574,24.5673 32.77055,37.77957 57.22192,30.06711 z m 246.49374,26.58011 c -17.19843,-4.62571 -36.66188,-20.0884 -44.91677,-35.68405 -11.10224,-20.97499 -11.11742,-47.15511 -0.0396,-68.29974 5.5442,-10.58245 19.5175,-24.28533 30.29186,-29.70568 11.70784,-5.88995 20.07579,-7.8507 33.43353,-7.83409 13.19838,0.0164 21.07205,1.86301 32.94128,7.72562 16.29712,8.0497 28.624,22.36596 35.13093,40.80056 3.14532,8.91097 3.57435,11.69123 3.57435,23.16346 0,11.47222 -0.42903,14.25249 -3.57435,23.16346 -1.96591,5.56953 -5.57802,13.14505 -8.02693,16.8345 -9.23046,13.90628 -25.73285,25.68217 -41.79869,29.82701 -9.07843,2.34215 -28.32345,2.34681 -37.01559,0.009 z m 37.08412,-28.15303 c 8.71716,-3.99086 17.87222,-12.76496 22.44756,-21.51348 3.52381,-6.73791 3.72906,-7.84793 3.72906,-20.16741 0,-12.31948 -0.20525,-13.4295 -3.72906,-20.16741 -4.59651,-8.78902 -13.70719,-17.49505 -22.67915,-21.67184 -5.82526,-2.7119 -8.35815,-3.15797 -18.03623,-3.17637 -10.14354,-0.0193 -12.02298,0.34053 -18.96635,3.6311 -23.65675,11.2113 -33.2931,38.39818 -21.8792,61.72737 5.40855,11.05466 17.77121,21.01659 29.87775,24.0757 7.70811,1.9477 21.90532,0.61825 29.23562,-2.73766 z M 182.22669,406.58943 C 161.08733,399.82347 143.80868,382.85386 137.42777,362.59176 136.70929,360.31028 125.43358,297.91027 112.37063,223.92509 99.307689,149.9399 87.539229,86.012233 86.218499,81.8636 83.330549,72.792068 79.130759,66.444915 70.962329,58.806934 62.257689,50.667563 54.897319,47.864457 31.396869,43.738908 c -23.6604,-4.153615 -27.4038,-5.53359 -30.047,-11.076394 -4.2236,-8.857019 1.9454,-18.520673 11.8161,-18.509713 6.2241,0.0069 41.45537,6.464531 49.04349,8.989285 10.53373,3.504831 20.91881,10.18993 30.0579,19.348913 9.553671,9.574466 15.087851,18.135204 18.962401,29.332612 1.72789,4.993584 12.95638,62.528229 12.95638,66.388319 0,0.22889 15.29174,0.27466 33.98165,0.10169 l 33.98165,-0.31448 2.11939,-11.11377 C 206.53994,62.537486 256.9553,12.725834 320.83943,1.8304329 c 13.9974,-2.38724897 37.57391,-2.44764697 51.84641,-0.132821 47.59028,7.718567 90.04169,38.8611411 112.28877,82.3756241 7.16691,14.018204 12.92441,30.918174 15.21645,44.664744 l 1.54416,9.26118 48.76079,0.59259 48.76079,0.5926 3.03911,2.85621 c 1.67152,1.57092 3.36432,4.58961 3.76176,6.7082 0.94343,5.0289 -61.76287,214.17352 -67.48504,225.0832 -5.37773,10.25298 -16.89936,21.98203 -26.54469,27.0226 -16.30149,8.51902 -4.25961,7.96642 -172.05691,7.89568 -141.26206,-0.0595 -151.62263,-0.20147 -157.74434,-2.16081 z m 314.28296,-27.58044 c 7.62115,-3.57306 15.26015,-10.66553 18.58675,-17.25695 1.84422,-3.6542 19.08161,-59.8316 57.10978,-186.12325 l 3.30111,-10.96296 h -36.50717 -36.50717 l -0.7986,7.40741 c -7.20902,66.86719 -58.72028,122.30802 -126.00029,135.61232 -15.7081,3.10621 -44.64329,2.74976 -60.07551,-0.74005 -40.01375,-9.04864 -72.30345,-30.32271 -95.72197,-63.06642 -14.56771,-20.36853 -23.74524,-44.87798 -27.55331,-73.58363 l -0.74682,-5.62963 h -31.35736 -31.35737 l 0.60306,2.66667 c 0.33168,1.46666 7.8167,43.55612 16.63335,93.53213 8.81665,49.976 16.81918,93.10143 17.78338,95.83428 4.20794,11.92659 15.22047,21.83852 27.50537,24.75647 2.54774,0.60515 67.92444,0.98433 151.44592,0.87837 l 146.96297,-0.18644 z M 361.39992,282.69487 c 17.56096,-1.30182 38.88078,-8.91321 55.73021,-19.89622 33.04379,-21.53902 53.66619,-55.54205 58.01754,-95.6616 2.52067,-23.24074 -1.64208,-45.91282 -12.53099,-68.249 C 449.72489,72.443388 429.79349,52.149097 404.48243,39.695337 362.43285,19.005741 314.43826,22.130674 275.03364,48.123762 265.22916,54.59125 248.61233,70.957668 241.7633,80.89273 c -22.57261,32.74339 -29.26534,72.38507 -18.49536,109.54998 14.81584,51.12638 60.77756,88.81348 113.0555,92.70178 5.5467,0.41255 11.68492,0.6116 13.64048,0.44234 1.95555,-0.16927 7.10176,-0.57066 11.436,-0.89196 z m -22.69526,-57.60068 c -26.51716,-9.67702 -51.76171,-28.7218 -65.04618,-49.07157 -19.76115,-30.27104 -18.87734,-67.19132 2.10156,-87.79123 7.5068,-7.37118 11.28449,-9.7143 20.1065,-12.471078 13.67532,-4.273384 29.61933,-2.853332 44.51118,3.964386 l 6.624,3.03257 6.65549,-2.943371 c 31.24259,-13.816952 61.08346,-4.383634 74.58995,23.579423 11.19672,23.18104 6.88816,52.6745 -11.27758,77.19857 -6.34687,8.56837 -21.35016,22.44944 -31.0383,28.71667 -10.3647,6.70488 -31.04885,16.60197 -36.55996,17.49346 -2.68303,0.434 -6.45047,-0.1692 -10.66666,-1.70783 z m 18.10038,-29.77337 c 18.7052,-9.40024 30.96693,-19.24485 40.01201,-32.12456 18.00402,-25.6368 13.18724,-57.0831 -9.5803,-62.54495 -7.89097,-1.89301 -15.2446,-0.16436 -28.42143,6.68115 -11.88276,6.17323 -13.4479,6.19476 -22.66071,0.31186 -7.31235,-4.66935 -17.5228,-8.16368 -23.8543,-8.16368 -7.05222,0 -16.42668,4.85702 -20.095,10.41145 -4.31668,6.53614 -5.88665,12.45303 -5.82606,21.95718 0.15428,24.20159 16.63451,45.48365 48.00644,61.99398 6.61247,3.47999 12.16784,6.3387 12.34528,6.3527 0.17743,0.014 4.71076,-2.17982 10.07407,-4.87513 z"
     id="path180"
     inkscape:connector-curvature="0" />
</svg>
